<?xml version="1.0" encoding="UTF-8"?>
<svg width="81px" height="104px" viewBox="0 0 81 104" version="1.1" xmlns="http://www.w3.org/2000/svg" xmlns:xlink="http://www.w3.org/1999/xlink">
    <title>1</title>
    <g id="1" stroke="none" stroke-width="1" fill="none" fill-rule="evenodd">
        <path d="M3.66362707,6.24970002 C12.528853,-3.2177242 28.9474513,-0.866200357 36.6542649,6.24970002 C44.3610784,13.3656004 55.0321409,-0.75668453 66.693177,10.9632612 C78.354213,22.683207 59.0819582,43.4088582 68.284881,57.938542 C77.4878038,72.4682258 77.4878038,95.0895292 66.693177,99.9426804 C55.8985501,104.795832 34.750341,107.824229 18.7310125,93.8036612 C2.711684,79.7830934 12.1532163,46.9506972 8.23269227,37.2269088 C4.31216819,27.5031205 -5.20159888,15.7171242 3.66362707,6.24970002 Z" id="Path-4" fill-opacity="0.2" fill="#F5BEC9"></path>
        <path d="M12.2285789,11.6572401 C21.0757957,2.15779456 29.4462201,-2.13287566 37.1373777,5.00709259 C44.8285354,12.1470608 60.8807423,-0.328119892 72.5180897,11.4314658 C84.1554371,23.1910516 72.7432897,42.0946994 72.2243565,59.2527143 C71.7054233,76.4107293 77.8879658,94.1474017 67.1152676,99.0169675 C56.3425694,103.886533 37.5793107,104.106472 21.5925244,90.0384833 C5.6057382,75.9704942 7.72322851,61.5296906 4.98753194,50.4196318 C2.25183537,39.309573 3.38136214,21.1566857 12.2285789,11.6572401 Z" id="Path-4" fill-opacity="0.15" fill="#F5BEC9" transform="translate(40.700915, 51.734394) scale(1, -1) rotate(-13.000000) translate(-40.700915, -51.734394) "></path>
        <text font-family="OpenSans-Bold, Open Sans" font-size="92" font-weight="bold" fill="#F5BEC9">
            <tspan x="14" y="87">1</tspan>
        </text>
    </g>
</svg>