<?xml version="1.0" encoding="UTF-8"?>
<svg width="91px" height="107px" viewBox="0 0 91 107" version="1.1" xmlns="http://www.w3.org/2000/svg" xmlns:xlink="http://www.w3.org/1999/xlink">
    <title>2</title>
    <g id="2" stroke="none" stroke-width="1" fill="none" fill-rule="evenodd">
        <path d="M10.6636271,6.24970002 C19.528853,-3.2177242 35.9474513,-0.866200357 43.6542649,6.24970002 C51.3610784,13.3656004 62.0321409,-0.75668453 73.693177,10.9632612 C85.354213,22.683207 66.0819582,43.4088582 75.284881,57.938542 C84.4878038,72.4682258 84.4878038,95.0895292 73.693177,99.9426804 C62.8985501,104.795832 41.750341,107.824229 25.7310125,93.8036612 C9.711684,79.7830934 19.1532163,46.9506972 15.2326923,37.2269088 C11.3121682,27.5031205 1.79840112,15.7171242 10.6636271,6.24970002 Z" id="Path-4" fill-opacity="0.2" fill="#F5B2BC"></path>
        <path d="M10.9236935,7.55295945 C19.7709103,-1.94648612 36.1561552,0.412991201 43.8473129,7.55295945 C51.5384705,14.6929277 69.2362471,-3.4965704 80.8735945,8.26301533 C92.5109418,20.0226011 71.3802407,42.4848051 80.5644683,57.0636322 C89.7486959,71.6424593 84.5979009,96.6932686 73.8252027,101.562834 C63.0525045,106.4324 44.2892458,106.652339 28.3024595,92.5843501 C12.3156733,78.516361 26.6677012,52.1359915 22.7551414,42.3793147 C18.8425816,32.6226379 2.0764767,17.052405 10.9236935,7.55295945 Z" id="Path-4" fill-opacity="0.15" fill="#F5B2BC" transform="translate(46.848449, 52.926726) scale(1, -1) rotate(-13.000000) translate(-46.848449, -52.926726) "></path>
        <text font-family="OpenSans-Bold, Open Sans" font-size="92" font-weight="bold" fill="#F5B2BC">
            <tspan x="21" y="87">2</tspan>
        </text>
    </g>
</svg>