<?xml version="1.0" encoding="UTF-8"?>
<svg width="82px" height="107px" viewBox="0 0 82 107" version="1.1" xmlns="http://www.w3.org/2000/svg" xmlns:xlink="http://www.w3.org/1999/xlink">
    <title>3</title>
    <g id="3" stroke="none" stroke-width="1" fill="none" fill-rule="evenodd">
        <path d="M27.1561946,2.59081259 C45.138963,-2.12786327 53.9658356,-0.960085036 65.6655933,10.772578 C77.365351,22.505241 58.0291007,43.2533815 67.2625828,57.7988314 C76.4960648,72.3442813 76.4960648,94.9901309 65.6655933,99.8485482 C54.8351218,104.706966 21.4086632,114.702163 10.9071108,96.551036 C0.405558363,78.3999087 14.8406533,52.7507239 10.9071108,43.0163843 C6.97356818,33.2820447 9.17342627,7.30948844 27.1561946,2.59081259 Z" id="Path-4" fill-opacity="0.2" fill="#F4A5AE"></path>
        <path d="M9.47323172,9.58667701 C14.6681069,-0.455840207 28.4696644,-2.33864319 36.160822,4.80132505 C43.8519796,11.9412933 61.5497562,-6.24820479 73.1871036,5.51138093 C84.824451,17.2709667 63.6937498,39.7331707 72.8779774,54.3119978 C82.0622051,68.8908249 75.9333795,90.641964 66.1387119,98.8112 C56.3440442,106.980436 36.6027549,103.900705 20.6159687,89.8327157 C4.62918245,75.7647266 14.7616237,56.3782648 10.849064,46.6215881 C6.93650419,36.8649113 4.2783565,19.6291942 9.47323172,9.58667701 Z" id="Path-4" fill-opacity="0.15" fill="#F4A5AE" transform="translate(41.990200, 51.891006) scale(1, -1) rotate(-13.000000) translate(-41.990200, -51.891006) "></path>
        <text font-family="OpenSans-Bold, Open Sans" font-size="92" font-weight="bold" fill="#F4A5AE">
            <tspan x="13" y="87">3</tspan>
        </text>
    </g>
</svg>