<?xml version="1.0" encoding="UTF-8"?>
<svg width="77px" height="104px" viewBox="0 0 77 104" version="1.1" xmlns="http://www.w3.org/2000/svg" xmlns:xlink="http://www.w3.org/1999/xlink">
    <title>4</title>
    <g id="4" stroke="none" stroke-width="1" fill="none" fill-rule="evenodd">
        <path d="M11.1877264,14.5086367 C17.9002517,9.60445859 22.5559847,10.4078703 35.0449766,10.4078703 C47.5339685,10.4078703 57.9725102,-9.42627347 72.893768,5.66617106 C87.8150258,20.7586156 56.5750814,43.0471541 65.7558929,57.6635741 C74.9367045,72.2799942 74.9367045,95.0363374 64.1680132,99.9184599 C53.3993218,104.800582 32.3019241,107.847058 16.3210841,93.7427933 C0.340244126,79.6385285 9.75909196,46.6101364 5.84798745,36.828301 C1.93688295,27.0464657 4.4752011,19.4128149 11.1877264,14.5086367 Z" id="Path-4" fill-opacity="0.2" fill="#CE7E96"></path>
        <path d="M11.1444004,12.5570021 C19.9916172,3.05755655 20.741423,-0.43903324 34.132462,5.05023764 C47.523501,10.5395085 58.6364267,1.63453126 70.273774,13.394117 C81.9111214,25.1537027 77.3526211,39.4805354 69.811414,52.9832395 C62.2702069,66.4859436 74.8830501,94.1905468 64.1103519,99.0601126 C53.3376537,103.929678 34.5743949,104.149617 18.5876087,90.0816283 C2.60082244,76.0136392 16.9528503,49.6332697 13.0402905,39.8765929 C9.12773073,30.1199161 2.29718358,22.0564477 11.1444004,12.5570021 Z" id="Path-4" fill-opacity="0.15" fill="#CE7E96" transform="translate(42.085772, 52.255838) scale(1, -1) rotate(-13.000000) translate(-42.085772, -52.255838) "></path>
        <text font-family="OpenSans-Bold, Open Sans" font-size="92" font-weight="bold" fill="#CE7E96">
            <tspan x="11" y="87">4</tspan>
        </text>
    </g>
</svg>