<?xml version="1.0" encoding="UTF-8"?>
<svg width="81px" height="103px" viewBox="0 0 81 103" version="1.1" xmlns="http://www.w3.org/2000/svg" xmlns:xlink="http://www.w3.org/1999/xlink">
    <title>5</title>
    <g id="5" stroke="none" stroke-width="1" fill="none" fill-rule="evenodd">
        <path d="M39.714307,2.91095768 C62.7471587,6.79449872 58.0634068,-4.11970669 69.7061839,7.64085318 C81.3489609,19.401413 62.1068828,40.1988866 71.2953956,54.7789214 C80.4839084,69.3589561 80.4839084,92.058651 69.7061839,96.9286203 C58.9284593,101.798589 37.8133643,104.837481 21.819119,90.768327 C5.82487368,76.6991725 20.9434165,66.1504637 13.3841451,45.3093782 C5.82487368,24.4682926 16.6814552,-0.972583356 39.714307,2.91095768 Z" id="Path-4" fill-opacity="0.2" fill="#A8577E"></path>
        <path d="M29.8201989,7.37496233 C50.692952,2.9162375 56.4779883,-4.00830453 68.6969318,8.10646455 C80.9158754,20.2212336 58.7291316,43.36188 68.3723566,58.3810421 C78.0155816,73.4002041 72.6073669,99.2076413 61.2962848,104.224286 C49.9852027,109.240931 30.2842181,109.467513 13.4984651,94.9746182 C-3.28728794,80.4817233 11.7820069,53.3045682 7.67391029,43.2532034 C3.56581369,33.2018386 8.94744577,11.8336872 29.8201989,7.37496233 Z" id="Path-4" fill-opacity="0.15" fill="#A8577E" transform="translate(39.361880, 54.323650) scale(1, -1) rotate(14.000000) translate(-39.361880, -54.323650) "></path>
        <text font-family="OpenSans-Bold, Open Sans" font-size="92" font-weight="bold" fill="#A8577E">
            <tspan x="17" y="84">5</tspan>
        </text>
    </g>
</svg>