<?xml version="1.0" encoding="UTF-8"?>
<svg width="1440px" height="180px" viewBox="0 0 1440 180" version="1.1" xmlns="http://www.w3.org/2000/svg" xmlns:xlink="http://www.w3.org/1999/xlink">
    <title>background-1</title>
    <defs>
        <rect id="path-1" x="0" y="0" width="1440" height="180"></rect>
    </defs>
    <g id="background-1" stroke="none" stroke-width="1" fill="none" fill-rule="evenodd">
        <g id="Oval">
            <g id="Mask">
                <g>
                    <mask id="mask-2" fill="white">
                        <use xlink:href="#path-1"></use>
                    </mask>
                    <use fill="#3B429F" xlink:href="#path-1"></use>
                    <g id="Group" mask="url(#mask-2)" fill="#7360B7">
                        <g transform="translate(219.500000, -76.500000) scale(-1, -1) translate(-219.500000, 76.500000) translate(0.000000, -221.000000)">
                            <circle id="Oval-Copy-2" cx="145.394266" cy="144.5" r="144.5"></circle>
                            <path d="M192.12778,7.52697835 C231.281546,22.9683119 245.305087,45.9374019 315.521411,45.9374019 C362.332294,45.9374019 403.456579,54.2916013 438.894266,71 L97.8942663,71 C134.614099,18.3904298 166.02527,-2.76724404 192.12778,7.52697835 Z" id="Path-Copy"></path>
                        </g>
                    </g>
                </g>
                <path d="M783.5,111 C797.399068,111 810.855131,112.896732 823.623471,116.445479 C826.315668,116.867096 828.957937,117.586268 831.54965,118.603553 C833.471292,119.357826 835.334458,120.129533 837.148121,120.915324 C846.814794,124.631854 855.998132,129.325054 864.57699,134.873084 C886.888958,147.019227 909.372901,158.177929 959.285578,158.177929 C1007.74377,158.177929 1050.31524,166.785286 1087,184 L911.9711,183.999647 C925.326599,206.380012 933,232.543897 933,260.5 C933,343.06657 866.06657,410 783.5,410 C700.93343,410 634,343.06657 634,260.5 C634,177.93343 700.93343,111 783.5,111 Z" id="Combined-Shape" fill="#F5BEC9"></path>
            </g>
            <circle fill="#F4A5AE" cx="1510.5" cy="162.5" r="138.5"></circle>
            <circle id="Oval-Copy-3" fill="#F4A5AE" cx="251.5" cy="291.5" r="138.5"></circle>
            <path d="M947.856625,0 C988.796315,8.15744579 1028.51366,20.6559495 1067.00867,37.4955111 C1124.75118,62.7548535 1208.51486,53.560558 1234.18929,45.5280346 C1251.30557,40.1730189 1284.19469,24.9970074 1332.85662,0 L947.856625,0 Z" id="Path-2" fill="#A8577E"></path>
        </g>
    </g>
</svg>