<?xml version="1.0" encoding="UTF-8"?>
<svg width="1440px" height="180px" viewBox="0 0 1440 180" version="1.1" xmlns="http://www.w3.org/2000/svg" xmlns:xlink="http://www.w3.org/1999/xlink">
    <title>background-2</title>
    <defs>
        <rect id="path-1" x="0" y="0" width="1440" height="180"></rect>
        <linearGradient x1="50%" y1="0%" x2="50%" y2="100%" id="linearGradient-3">
            <stop stop-color="#AB99DC" stop-opacity="0.7" offset="0%"></stop>
            <stop stop-color="#7360B7" stop-opacity="0.3" offset="100%"></stop>
        </linearGradient>
    </defs>
    <g id="background-2" stroke="none" stroke-width="1" fill="none" fill-rule="evenodd">
        <g id="Oval">
            <g id="Mask">
                <g>
                    <mask id="mask-2" fill="white">
                        <use xlink:href="#path-1"></use>
                    </mask>
                    <use fill="#3B429F" xlink:href="#path-1"></use>
                </g>
            </g>
        </g>
        <polygon id="Path-2" fill="#7360B7" transform="translate(1283.705917, 90.000000) scale(-1, 1) translate(-1283.705917, -90.000000) " points="1168.0788 180 1336.82541 -6.21724894e-15 1399.33303 0 1235.9253 180"></polygon>
        <polygon id="Path-2-Copy-2" fill-opacity="0.6" fill="#F4A5AE" transform="translate(256.500000, 90.000000) scale(-1, 1) translate(-256.500000, -90.000000) " points="-1.13686838e-13 180 419.200582 1.19904087e-13 512.894266 -1.19904087e-13 513 180"></polygon>
        <polygon id="Path-2-Copy-2" fill-opacity="0.7" fill="#F5D7E3" transform="translate(206.127115, 90.000000) scale(-1, -1) translate(-206.127115, -90.000000) " points="-3.48159184e-13 180 366.884897 9.68114477e-14 412.148495 5.68434189e-14 412.254229 180"></polygon>
        <polygon id="Path-2-Copy" fill="url(#linearGradient-3)" transform="translate(1340.925752, 90.000000) scale(-1, 1) translate(-1340.925752, -90.000000) " points="1198.8515 180 1367.59811 -6.21724894e-15 1483 -2.77679039e-28 1319.59227 180"></polygon>
    </g>
</svg>