<?xml version="1.0" encoding="UTF-8"?>
<svg width="650px" height="650px" viewBox="0 0 650 650" version="1.1" xmlns="http://www.w3.org/2000/svg" xmlns:xlink="http://www.w3.org/1999/xlink">
    <title>blog-posts</title>
    <g id="blog-posts" stroke="none" stroke-width="1" fill="none" fill-rule="evenodd">
        <g id="Group-2" transform="translate(57.000000, 0.000000)">
            <g id="undraw_design_team_af2y" transform="translate(0.000000, 90.631667)">
                <path d="M517.275417,455.086667 L58.3320833,455.086667 C54.3401805,455.086667 51.1008333,451.84732 51.1008333,447.855417 L51.1008333,7.23125 C51.1008333,3.23934716 54.3401805,2.74032648e-14 58.3320833,2.74032648e-14 L517.275417,2.74032648e-14 C521.26732,2.74032648e-14 524.506667,3.23934716 524.506667,7.23125 L524.506667,447.855417 C524.506667,451.84732 521.26732,455.086667 517.275417,455.086667 L517.275417,455.086667 Z M58.3320833,2.8925 C55.9369416,2.8925 53.9933333,4.8361083 53.9933333,7.23125 L53.9933333,447.855417 C53.9933333,450.250556 55.9369438,452.194167 58.3320833,452.194167 L517.275417,452.194167 C519.670558,452.194167 521.614167,450.250558 521.614167,447.855417 L521.614167,7.23125 C521.614167,4.8361061 519.670561,2.8925 517.275417,2.8925 L58.3320833,2.8925 Z" id="Shape" fill="#E6E6E6" fill-rule="nonzero"></path>
                <path d="M84.8466667,38.5666667 C83.2499055,38.5684096 81.9559096,39.8624055 81.9541667,41.4591667 L81.9541667,161.015833 C81.9559096,162.612594 83.2499055,163.90659 84.8466667,163.908333 L204.403333,163.908333 C206.000094,163.90659 207.29409,162.612594 207.295833,161.015833 L207.295833,41.4591667 C207.29409,39.8624055 206.000094,38.5684096 204.403333,38.5666667 L84.8466667,38.5666667 Z" id="Path" fill="#E6E6E6" fill-rule="nonzero"></path>
                <path d="M272.897666,125.101097 C270.990268,125.132781 269.46061,126.688058 269.46061,128.59572 C269.46061,130.503381 270.990268,132.058658 272.897666,132.090342 L437.652538,132.090342 C438.903105,132.114043 440.071006,131.467659 440.715004,130.395397 C441.359002,129.323135 441.380912,127.988471 440.772456,126.895649 C440.164001,125.802826 439.017945,125.118456 437.767273,125.101097 C437.729022,125.100455 437.690776,125.100455 437.652538,125.101097 L272.897666,125.101097 Z" id="b9d15c13-74bb-46fd-a6fd-5a7002be597d" fill="#E6E6E6" fill-rule="nonzero"></path>
                <path d="M272.897666,93.2835974 C270.990268,93.3152809 269.46061,94.8705584 269.46061,96.7782195 C269.46061,98.6858807 270.990268,100.241158 272.897666,100.272842 L320.024204,100.272842 C321.274771,100.296543 322.442673,99.6501595 323.086671,98.5778972 C323.730669,97.5056349 323.752579,96.1709714 323.144123,95.0781488 C322.535667,93.9853261 321.389611,93.3009563 320.13894,93.2835974 C320.100688,93.2829547 320.062443,93.2829547 320.024204,93.2835974 L272.897666,93.2835974 Z" id="fb98932a-aea9-43a1-946e-96a095a0002f" fill="#E6E6E6" fill-rule="nonzero"></path>
                <path d="M272.897666,157.882764 C270.990268,157.914448 269.46061,159.469725 269.46061,161.377386 C269.46061,163.285047 270.990268,164.840325 272.897666,164.872008 L437.652538,164.872008 C439.579184,164.898749 441.16405,163.361182 441.196157,161.434609 C441.227304,159.508036 439.69376,157.919276 437.767273,157.882764 C437.729022,157.882121 437.690776,157.882121 437.652538,157.882764 L272.897666,157.882764 Z" id="a8382d7c-76a2-4f66-b41d-b5784413a475" fill="#E6E6E6" fill-rule="nonzero"></path>
                <path d="M468.882706,284.151892 L242.459734,284.151892 C238.045779,284.151892 234.468721,281.603599 234.4639,278.463308 L234.4639,229.250313 C234.468721,226.110022 238.045779,223.56173 242.459734,223.56173 L468.882706,223.56173 C473.296661,223.56173 476.873719,226.110022 476.87854,229.250313 L476.87854,278.462344 C476.874693,281.602702 473.29667,284.148035 468.882706,284.151892 Z" id="a69b3c31-ebec-4776-89b9-9c88b713759e" fill="#E6E6E6" fill-rule="nonzero"></path>
                <path d="M315.580206,403.708558 L89.1572341,403.708558 C84.7432791,403.708558 81.1662207,401.160266 81.1613999,398.019975 L81.1613999,348.80698 C81.1662207,345.666689 84.7432791,343.118397 89.1572341,343.118397 L315.580206,343.118397 C319.994161,343.118397 323.571219,345.666689 323.57604,348.80698 L323.57604,398.019011 C323.572193,401.159369 319.99417,403.704702 315.580206,403.708558 Z" id="ac481be8-039b-4a38-bb10-2d9a81406e5c" fill="#E6E6E6" fill-rule="nonzero"></path>
                <path d="M247.276209,430.819064 L20.8532377,430.819064 C16.4392827,430.819064 12.8622244,428.270772 12.8574035,425.130481 L12.8574035,375.917486 C12.8622244,372.777195 16.4392827,370.228902 20.8532377,370.228902 L247.276209,370.228902 C251.690164,370.228902 255.267223,372.777195 255.272044,375.917486 L255.272044,425.129517 C255.268197,428.269807 251.690174,430.815207 247.276209,430.819064 Z M20.8532377,372.502407 C18.2046719,372.502407 16.0584369,374.031576 16.0555444,375.915557 L16.0555444,425.127588 C16.0555444,427.01157 18.2046719,428.53881 20.8532377,428.540738 L247.276209,428.540738 C249.924775,428.540738 252.07101,427.01157 252.073903,425.127588 L252.073903,375.917486 C252.073903,374.033504 249.924775,372.506264 247.276209,372.504336 L20.8532377,372.502407 Z" id="e05581d0-cd6a-412e-af3c-57495fab8d46" fill="#3F3D56" fill-rule="nonzero"></path>
                <circle id="Oval" fill="#F5BEC9" fill-rule="nonzero" cx="328.780833" cy="277.68" r="18.3191667"></circle>
                <circle id="Oval" fill="#A8577E" fill-rule="nonzero" cx="53.9933333" cy="400.129167" r="18.3191667"></circle>
                <rect id="Rectangle" fill="#AA7DCE" x="19.2833333" y="93.5241667" width="90.6316667" height="90.6316667" rx="2.8925"></rect>
                <path d="M42.42908,184.155833 L22.1758333,184.155833 C20.5783497,184.155833 19.2833333,182.860817 19.2833333,181.263333 L19.2833333,96.4166667 C19.2833333,94.819183 20.5783497,93.5241667 22.1758333,93.5241667 L107.0225,93.5241667 C108.619984,93.5241667 109.915,94.819183 109.915,96.4166667 L109.915,113.966777" id="Path" fill-opacity="0.3" fill="#7360B7" style="mix-blend-mode: multiply;"></path>
                <path d="M368.350166,264.543702 C366.442768,264.575385 364.91311,266.130663 364.91311,268.038324 C364.91311,269.945985 366.442768,271.501262 368.350166,271.532946 L499.359204,271.532946 C501.285851,271.559687 502.870717,270.022119 502.902824,268.095546 C502.93397,266.168973 501.400426,264.580214 499.47394,264.543702 C499.435688,264.543059 499.397443,264.543059 499.359204,264.543702 L368.350166,264.543702 Z" id="f4993879-8a0d-4ea4-907e-e549be7081a0" fill="#3F3D56" fill-rule="nonzero"></path>
                <path d="M368.350166,283.827035 C366.442768,283.858718 364.91311,285.413996 364.91311,287.321657 C364.91311,289.229318 366.442768,290.784596 368.350166,290.816279 L499.359204,290.816279 C501.285851,290.84302 502.870717,289.305452 502.902824,287.37888 C502.93397,285.452307 501.400426,283.863547 499.47394,283.827035 C499.435688,283.826392 499.397443,283.826392 499.359204,283.827035 L368.350166,283.827035 Z" id="a649136c-96b9-48c7-9686-75389104c34a" fill="#3F3D56" fill-rule="nonzero"></path>
                <path d="M93.5626658,386.992868 C91.6552678,387.024552 90.1256102,388.579829 90.1256102,390.48749 C90.1256102,392.395151 91.6552678,393.950429 93.5626658,393.982112 L224.571704,393.982112 C226.498351,394.008854 228.083217,392.471286 228.115324,390.544713 C228.14647,388.61814 226.612926,387.02938 224.68644,386.992868 C224.648188,386.992225 224.609943,386.992225 224.571704,386.992868 L93.5626658,386.992868 Z" id="bf4cb793-0df2-4753-9628-c376ea3545d1" fill="#3F3D56" fill-rule="nonzero"></path>
                <path d="M93.5626658,406.276202 C91.6552678,406.307885 90.1256102,407.863163 90.1256102,409.770824 C90.1256102,411.678485 91.6552678,413.233762 93.5626658,413.265446 L224.571704,413.265446 C226.498351,413.292187 228.083217,411.754619 228.115324,409.828046 C228.14647,407.901473 226.612926,406.312714 224.68644,406.276202 C224.648188,406.275559 224.609943,406.275559 224.571704,406.276202 L93.5626658,406.276202 Z" id="bf2170fd-291c-4664-b596-01f8e04656d6" fill="#3F3D56" fill-rule="nonzero"></path>
                <path d="M124.3775,74.2408333 L4.82083333,74.2408333 C2.15875965,74.2408333 0,76.399593 0,79.0616667 L0,198.618333 C0,201.280407 2.15875965,203.439167 4.82083333,203.439167 L124.3775,203.439167 C127.039574,203.439167 129.198333,201.280407 129.198333,198.618333 L129.198333,79.0616667 C129.198333,76.399593 127.039574,74.2408333 124.3775,74.2408333 L124.3775,74.2408333 Z M127.27,198.618333 C127.265324,200.213876 125.973043,201.506158 124.3775,201.510833 L4.82083333,201.510833 C3.22529041,201.506158 1.93300894,200.213876 1.92833333,198.618333 L1.92833333,79.0616667 C1.93298787,77.466115 3.22528164,76.1738212 4.82083333,76.1691667 L124.3775,76.1691667 C125.973054,76.1738159 127.265351,77.4661128 127.27,79.0616667 L127.27,198.618333 Z" id="Shape" fill="#3F3D56" fill-rule="nonzero"></path>
                <path d="M527.787977,308.210415 L301.365005,308.210415 C296.95105,308.210415 293.373992,305.662122 293.369171,302.521831 L293.369171,253.308836 C293.373992,250.168545 296.95105,247.620253 301.365005,247.620253 L527.787977,247.620253 C532.201932,247.620253 535.77899,250.168545 535.783811,253.308836 L535.783811,302.520867 C535.779954,305.661177 532.201941,308.206568 527.787977,308.210415 Z M301.365005,249.893758 C298.716439,249.893758 296.570204,251.422926 296.567312,253.306908 L296.567312,302.518939 C296.567312,304.40292 298.716439,305.93016 301.365005,305.932089 L527.787977,305.932089 C530.436542,305.932089 532.582777,304.40292 532.58567,302.518939 L532.58567,253.308836 C532.58567,251.424855 530.436542,249.897615 527.787977,249.895686 L301.365005,249.893758 Z" id="acccf4df-3a09-4c7b-a8c8-af469fe66e6d" fill="#3F3D56" fill-rule="nonzero"></path>
            </g>
            <circle id="Oval" fill="#F5BEC9" cx="476.780417" cy="34.2279167" r="4.33875"></circle>
            <circle id="Oval-Copy-4" fill="#F5BEC9" cx="176.924583" cy="4.33875" r="4.33875"></circle>
            <circle id="Oval-Copy-5" fill="#F5BEC9" cx="241.52375" cy="569.340417" r="4.33875"></circle>
            <circle id="Oval-Copy-6" fill="#A8577E" cx="313.83625" cy="637.509583" r="4.33875"></circle>
            <path d="M241.103185,68.047802 C239.753035,67.4602202 239.058908,65.9528915 239.490134,64.5449845 C239.523155,64.4397884 239.543546,64.3310377 239.550876,64.2210245 L239.550876,64.2210245 C239.594815,63.5786067 239.210137,62.9840716 238.606134,62.7608869 C238.002131,62.5377023 237.323291,62.7392579 236.938949,63.2558937 L236.938949,63.2558937 C236.87401,63.3436927 236.819642,63.4388368 236.776969,63.5393587 C236.189387,64.8895087 234.682058,65.583635 233.274151,65.1524095 C233.168955,65.1193882 233.060204,65.0989974 232.950191,65.091667 L232.950191,65.091667 C232.307773,65.0477281 231.713238,65.4324058 231.490054,66.036409 C231.266869,66.6404122 231.468425,67.3192526 231.98506,67.7035945 L231.98506,67.7035945 C232.072859,67.768533 232.168004,67.8229011 232.268525,67.8655745 C233.618675,68.4531564 234.312802,69.960485 233.881576,71.368392 C233.848555,71.4735882 233.828164,71.5823389 233.820834,71.692352 L233.820834,71.692352 C233.776895,72.3347698 234.161572,72.929305 234.765576,73.1524897 C235.369579,73.3756743 236.048419,73.1741187 236.432761,72.6574829 L236.432761,72.6574829 C236.4977,72.5696839 236.552068,72.4745397 236.594741,72.3740179 C237.182323,71.0238678 238.689652,70.3297415 240.097559,70.760967 C240.202755,70.7939884 240.311506,70.8143792 240.421519,70.8217095 L240.421519,70.8217095 C241.063937,70.8656484 241.658472,70.4809708 241.881656,69.8769676 C242.104841,69.2729643 241.903285,68.5941239 241.38665,68.209782 L241.38665,68.209782 C241.298851,68.1448436 241.203706,68.0904755 241.103185,68.047802 L241.103185,68.047802 Z" id="Path" fill="#7360B7" fill-rule="nonzero"></path>
            <path d="M460.933185,600.267802 C459.583035,599.68022 458.888908,598.172892 459.320134,596.764985 C459.353155,596.659788 459.373546,596.551038 459.380876,596.441025 L459.380876,596.441025 C459.424815,595.798607 459.040137,595.204072 458.436134,594.980887 C457.832131,594.757702 457.153291,594.959258 456.768949,595.475894 L456.768949,595.475894 C456.70401,595.563693 456.649642,595.658837 456.606969,595.759359 C456.019387,597.109509 454.512058,597.803635 453.104151,597.37241 C452.998955,597.339388 452.890204,597.318997 452.780191,597.311667 L452.780191,597.311667 C452.137773,597.267728 451.543238,597.652406 451.320054,598.256409 C451.096869,598.860412 451.298425,599.539253 451.81506,599.923595 L451.81506,599.923595 C451.902859,599.988533 451.998004,600.042901 452.098525,600.085575 C453.448675,600.673156 454.142802,602.180485 453.711576,603.588392 C453.678555,603.693588 453.658164,603.802339 453.650834,603.912352 L453.650834,603.912352 C453.606895,604.55477 453.991572,605.149305 454.595576,605.37249 C455.199579,605.595674 455.878419,605.394119 456.262761,604.877483 L456.262761,604.877483 C456.3277,604.789684 456.382068,604.69454 456.424741,604.594018 C457.012323,603.243868 458.519652,602.549742 459.927559,602.980967 C460.032755,603.013988 460.141506,603.034379 460.251519,603.04171 L460.251519,603.04171 C460.893937,603.085648 461.488472,602.700971 461.711656,602.096968 C461.934841,601.492964 461.733285,600.814124 461.21665,600.429782 L461.21665,600.429782 C461.128851,600.364844 461.033706,600.310475 460.933185,600.267802 L460.933185,600.267802 Z" id="Path" fill="#7360B7" fill-rule="nonzero"></path>
            <path d="M89.7290179,607.016969 C88.3788678,606.429387 87.6847415,604.922058 88.115967,603.514151 C88.1489884,603.408955 88.1693792,603.300204 88.1767095,603.190191 L88.1767095,603.190191 C88.2206484,602.547773 87.8359708,601.953238 87.2319676,601.730054 C86.6279643,601.506869 85.9491239,601.708425 85.564782,602.22506 L85.564782,602.22506 C85.4998436,602.312859 85.4454755,602.408004 85.402802,602.508525 C84.8152202,603.858675 83.3078915,604.552802 81.8999845,604.121576 C81.7947884,604.088555 81.6860377,604.068164 81.5760245,604.060834 L81.5760245,604.060834 C80.9336067,604.016895 80.3390716,604.401572 80.1158869,605.005576 C79.8927023,605.609579 80.0942579,606.288419 80.6108937,606.672761 L80.6108937,606.672761 C80.6986927,606.7377 80.7938368,606.792068 80.8943587,606.834741 C82.2445087,607.422323 82.938635,608.929652 82.5074095,610.337559 C82.4743882,610.442755 82.4539974,610.551506 82.446667,610.661519 L82.446667,610.661519 C82.4027281,611.303937 82.7874058,611.898472 83.391409,612.121656 C83.9954122,612.344841 84.6742526,612.143285 85.0585945,611.62665 L85.0585945,611.62665 C85.123533,611.538851 85.1779011,611.443706 85.2205745,611.343185 C85.8081564,609.993035 87.315485,609.298908 88.723392,609.730134 C88.8285882,609.763155 88.9373389,609.783546 89.047352,609.790876 L89.047352,609.790876 C89.6897698,609.834815 90.284305,609.450137 90.5074897,608.846134 C90.7306743,608.242131 90.5291187,607.563291 90.0124829,607.178949 L90.0124829,607.178949 C89.9246839,607.11401 89.8295397,607.059642 89.7290179,607.016969 L89.7290179,607.016969 Z" id="Path-Copy-2" fill="#A8577E" fill-rule="nonzero"></path>
            <circle id="Oval-Copy-6" fill="#A8577E" cx="50.61875" cy="43.8695833" r="4.33875"></circle>
            <path d="M408.868185,47.800302 C407.518035,47.2127202 406.823908,45.7053915 407.255134,44.2974845 C407.288155,44.1922884 407.308546,44.0835377 407.315876,43.9735245 L407.315876,43.9735245 C407.359815,43.3311067 406.975137,42.7365716 406.371134,42.5133869 C405.767131,42.2902023 405.088291,42.4917579 404.703949,43.0083937 L404.703949,43.0083937 C404.63901,43.0961927 404.584642,43.1913368 404.541969,43.2918587 C403.954387,44.6420087 402.447058,45.336135 401.039151,44.9049095 C400.933955,44.8718882 400.825204,44.8514974 400.715191,44.844167 L400.715191,44.844167 C400.072773,44.8002281 399.478238,45.1849058 399.255054,45.788909 C399.031869,46.3929122 399.233425,47.0717526 399.75006,47.4560945 L399.75006,47.4560945 C399.837859,47.521033 399.933004,47.5754011 400.033525,47.6180745 C401.383675,48.2056564 402.077802,49.712985 401.646576,51.120892 C401.613555,51.2260882 401.593164,51.3348389 401.585834,51.444852 L401.585834,51.444852 C401.541895,52.0872698 401.926572,52.681805 402.530576,52.9049897 C403.134579,53.1281743 403.813419,52.9266187 404.197761,52.4099829 L404.197761,52.4099829 C404.2627,52.3221839 404.317068,52.2270397 404.359741,52.1265179 C404.947323,50.7763678 406.454652,50.0822415 407.862559,50.513467 C407.967755,50.5464884 408.076506,50.5668792 408.186519,50.5742095 L408.186519,50.5742095 C408.828937,50.6181484 409.423472,50.2334708 409.646656,49.6294676 C409.869841,49.0254643 409.668285,48.3466239 409.15165,47.962282 L409.15165,47.962282 C409.063851,47.8973436 408.968706,47.8429755 408.868185,47.800302 L408.868185,47.800302 Z" id="Path-Copy-2" fill="#A8577E" fill-rule="nonzero"></path>
        </g>
    </g>
</svg>