<?xml version="1.0" encoding="UTF-8"?>
<svg width="650px" height="650px" viewBox="0 0 650 650" version="1.1" xmlns="http://www.w3.org/2000/svg" xmlns:xlink="http://www.w3.org/1999/xlink">
    <title>blog-posts</title>
    <g id="blog-posts" stroke="none" stroke-width="1" fill="none" fill-rule="evenodd">
        <path d="M580.7301,345.293026 C557.908138,386.814922 561.94381,443.212333 571.721783,487.68253 C574.994493,502.572935 578.775844,518.274868 575.864538,534.959567 C572.304044,555.359423 559.547839,571.441061 546.664473,580.643332 C523.173244,597.432264 496.429384,597.089785 477.060832,579.757353 C460.295725,564.777605 449.319766,538.570491 432.220026,524.40227 C403.568758,500.689299 364.108848,515.334013 329.782207,537.803635 C305.494552,553.691698 278.764077,573.80119 256.430678,562.59616 C240.716318,554.71169 230.998579,532.30163 226.49442,507.881365 C224.325999,496.095609 223.041009,483.215408 218.001437,474.243938 C215.003127,468.913173 210.867064,465.354366 206.577071,462.443292 C167.41833,435.886254 114.218394,458.497335 76.4784974,428.39638 C50.9861642,408.063531 36.6036428,365.901347 32.0057869,320.761083 C27.407931,275.620818 31.4770669,227.264226 36.5501015,179.652154 C40.177522,145.821153 42.1598771,113.795033 71.3858333,81.0404432 C100.61179,48.2858535 169.118266,61.1915325 186.090845,81.0404432 C207.30657,105.847859 226.39403,137.571868 253.941009,145.471228 C272.680451,150.85411 293.240296,144.421455 313.204493,140.743524 C346.580778,134.593787 379.461805,136.15728 412.095204,138.249381 C443.343223,140.252141 474.785329,142.7984 503.864926,155.097875 C524.444849,163.801317 540.192673,182.04951 559.380522,193.872492 C571.889099,201.578276 586.030685,202.494036 597.67591,212.798197 C612.018275,225.455042 624.379614,248.981883 618.50346,278.770139 C612.915091,307.099136 592.837118,323.262671 580.7301,345.293026 Z" id="Path-Copy" fill="#AA7DCE" fill-rule="nonzero" opacity="0.1" transform="translate(325.000000, 327.012836) scale(-1, 1) translate(-325.000000, -327.012836) "></path>
        <rect id="Rectangle" fill="#FFFFFF" x="111" y="94" width="468" height="449" rx="4"></rect>
        <g id="Group-2" transform="translate(57.000000, 90.000000)">
            <g id="undraw_design_team_af2y" transform="translate(0.000000, 0.631667)">
                <path d="M517.275417,455.086667 L58.3320833,455.086667 C54.3401805,455.086667 51.1008333,451.84732 51.1008333,447.855417 L51.1008333,7.23125 C51.1008333,3.23934716 54.3401805,2.74032648e-14 58.3320833,2.74032648e-14 L517.275417,2.74032648e-14 C521.26732,2.74032648e-14 524.506667,3.23934716 524.506667,7.23125 L524.506667,447.855417 C524.506667,451.84732 521.26732,455.086667 517.275417,455.086667 L517.275417,455.086667 Z M58.3320833,2.8925 C55.9369416,2.8925 53.9933333,4.8361083 53.9933333,7.23125 L53.9933333,447.855417 C53.9933333,450.250556 55.9369438,452.194167 58.3320833,452.194167 L517.275417,452.194167 C519.670558,452.194167 521.614167,450.250558 521.614167,447.855417 L521.614167,7.23125 C521.614167,4.8361061 519.670561,2.8925 517.275417,2.8925 L58.3320833,2.8925 Z" id="Shape" fill="#E6E6E6" fill-rule="nonzero"></path>
                <path d="M84.8466667,38.5666667 C83.2499055,38.5684096 81.9559096,39.8624055 81.9541667,41.4591667 L81.9541667,161.015833 C81.9559096,162.612594 83.2499055,163.90659 84.8466667,163.908333 L204.403333,163.908333 C206.000094,163.90659 207.29409,162.612594 207.295833,161.015833 L207.295833,41.4591667 C207.29409,39.8624055 206.000094,38.5684096 204.403333,38.5666667 L84.8466667,38.5666667 Z" id="Path" fill="#E6E6E6" fill-rule="nonzero"></path>
                <path d="M272.897666,125.101097 C270.990268,125.132781 269.46061,126.688058 269.46061,128.59572 C269.46061,130.503381 270.990268,132.058658 272.897666,132.090342 L437.652538,132.090342 C438.903105,132.114043 440.071006,131.467659 440.715004,130.395397 C441.359002,129.323135 441.380912,127.988471 440.772456,126.895649 C440.164001,125.802826 439.017945,125.118456 437.767273,125.101097 C437.729022,125.100455 437.690776,125.100455 437.652538,125.101097 L272.897666,125.101097 Z" id="b9d15c13-74bb-46fd-a6fd-5a7002be597d" fill="#E6E6E6" fill-rule="nonzero"></path>
                <path d="M272.897666,93.2835974 C270.990268,93.3152809 269.46061,94.8705584 269.46061,96.7782195 C269.46061,98.6858807 270.990268,100.241158 272.897666,100.272842 L320.024204,100.272842 C321.274771,100.296543 322.442673,99.6501595 323.086671,98.5778972 C323.730669,97.5056349 323.752579,96.1709714 323.144123,95.0781488 C322.535667,93.9853261 321.389611,93.3009563 320.13894,93.2835974 C320.100688,93.2829547 320.062443,93.2829547 320.024204,93.2835974 L272.897666,93.2835974 Z" id="fb98932a-aea9-43a1-946e-96a095a0002f" fill="#E6E6E6" fill-rule="nonzero"></path>
                <path d="M272.897666,157.882764 C270.990268,157.914448 269.46061,159.469725 269.46061,161.377386 C269.46061,163.285047 270.990268,164.840325 272.897666,164.872008 L437.652538,164.872008 C439.579184,164.898749 441.16405,163.361182 441.196157,161.434609 C441.227304,159.508036 439.69376,157.919276 437.767273,157.882764 C437.729022,157.882121 437.690776,157.882121 437.652538,157.882764 L272.897666,157.882764 Z" id="a8382d7c-76a2-4f66-b41d-b5784413a475" fill="#E6E6E6" fill-rule="nonzero"></path>
                <path d="M468.882706,284.151892 L242.459734,284.151892 C238.045779,284.151892 234.468721,281.603599 234.4639,278.463308 L234.4639,229.250313 C234.468721,226.110022 238.045779,223.56173 242.459734,223.56173 L468.882706,223.56173 C473.296661,223.56173 476.873719,226.110022 476.87854,229.250313 L476.87854,278.462344 C476.874693,281.602702 473.29667,284.148035 468.882706,284.151892 Z" id="a69b3c31-ebec-4776-89b9-9c88b713759e" fill="#E6E6E6" fill-rule="nonzero"></path>
                <path d="M315.580206,403.708558 L89.1572341,403.708558 C84.7432791,403.708558 81.1662207,401.160266 81.1613999,398.019975 L81.1613999,348.80698 C81.1662207,345.666689 84.7432791,343.118397 89.1572341,343.118397 L315.580206,343.118397 C319.994161,343.118397 323.571219,345.666689 323.57604,348.80698 L323.57604,398.019011 C323.572193,401.159369 319.99417,403.704702 315.580206,403.708558 Z" id="ac481be8-039b-4a38-bb10-2d9a81406e5c" fill="#E6E6E6" fill-rule="nonzero"></path>
                <path d="M247.276209,430.819064 L20.8532377,430.819064 C16.4392827,430.819064 12.8622244,428.270772 12.8574035,425.130481 L12.8574035,375.917486 C12.8622244,372.777195 16.4392827,370.228902 20.8532377,370.228902 L247.276209,370.228902 C251.690164,370.228902 255.267223,372.777195 255.272044,375.917486 L255.272044,425.129517 C255.268197,428.269807 251.690174,430.815207 247.276209,430.819064 Z M20.8532377,372.502407 C18.2046719,372.502407 16.0584369,374.031576 16.0555444,375.915557 L16.0555444,425.127588 C16.0555444,427.01157 18.2046719,428.53881 20.8532377,428.540738 L247.276209,428.540738 C249.924775,428.540738 252.07101,427.01157 252.073903,425.127588 L252.073903,375.917486 C252.073903,374.033504 249.924775,372.506264 247.276209,372.504336 L20.8532377,372.502407 Z" id="e05581d0-cd6a-412e-af3c-57495fab8d46" fill="#3F3D56" fill-rule="nonzero"></path>
                <circle id="Oval" fill="#F5BEC9" fill-rule="nonzero" cx="328.780833" cy="277.68" r="18.3191667"></circle>
                <circle id="Oval" fill="#A8577E" fill-rule="nonzero" cx="53.9933333" cy="400.129167" r="18.3191667"></circle>
                <rect id="Rectangle" fill="#AA7DCE" x="19.2833333" y="93.5241667" width="90.6316667" height="90.6316667" rx="2.8925"></rect>
                <path d="M42.42908,184.155833 L22.1758333,184.155833 C20.5783497,184.155833 19.2833333,182.860817 19.2833333,181.263333 L19.2833333,96.4166667 C19.2833333,94.819183 20.5783497,93.5241667 22.1758333,93.5241667 L107.0225,93.5241667 C108.619984,93.5241667 109.915,94.819183 109.915,96.4166667 L109.915,113.966777" id="Path" fill-opacity="0.3" fill="#7360B7" style="mix-blend-mode: multiply;"></path>
                <path d="M368.350166,264.543702 C366.442768,264.575385 364.91311,266.130663 364.91311,268.038324 C364.91311,269.945985 366.442768,271.501262 368.350166,271.532946 L499.359204,271.532946 C501.285851,271.559687 502.870717,270.022119 502.902824,268.095546 C502.93397,266.168973 501.400426,264.580214 499.47394,264.543702 C499.435688,264.543059 499.397443,264.543059 499.359204,264.543702 L368.350166,264.543702 Z" id="f4993879-8a0d-4ea4-907e-e549be7081a0" fill="#3F3D56" fill-rule="nonzero"></path>
                <path d="M368.350166,283.827035 C366.442768,283.858718 364.91311,285.413996 364.91311,287.321657 C364.91311,289.229318 366.442768,290.784596 368.350166,290.816279 L499.359204,290.816279 C501.285851,290.84302 502.870717,289.305452 502.902824,287.37888 C502.93397,285.452307 501.400426,283.863547 499.47394,283.827035 C499.435688,283.826392 499.397443,283.826392 499.359204,283.827035 L368.350166,283.827035 Z" id="a649136c-96b9-48c7-9686-75389104c34a" fill="#3F3D56" fill-rule="nonzero"></path>
                <path d="M93.5626658,386.992868 C91.6552678,387.024552 90.1256102,388.579829 90.1256102,390.48749 C90.1256102,392.395151 91.6552678,393.950429 93.5626658,393.982112 L224.571704,393.982112 C226.498351,394.008854 228.083217,392.471286 228.115324,390.544713 C228.14647,388.61814 226.612926,387.02938 224.68644,386.992868 C224.648188,386.992225 224.609943,386.992225 224.571704,386.992868 L93.5626658,386.992868 Z" id="bf4cb793-0df2-4753-9628-c376ea3545d1" fill="#3F3D56" fill-rule="nonzero"></path>
                <path d="M93.5626658,406.276202 C91.6552678,406.307885 90.1256102,407.863163 90.1256102,409.770824 C90.1256102,411.678485 91.6552678,413.233762 93.5626658,413.265446 L224.571704,413.265446 C226.498351,413.292187 228.083217,411.754619 228.115324,409.828046 C228.14647,407.901473 226.612926,406.312714 224.68644,406.276202 C224.648188,406.275559 224.609943,406.275559 224.571704,406.276202 L93.5626658,406.276202 Z" id="bf2170fd-291c-4664-b596-01f8e04656d6" fill="#3F3D56" fill-rule="nonzero"></path>
                <path d="M124.3775,74.2408333 L4.82083333,74.2408333 C2.15875965,74.2408333 0,76.399593 0,79.0616667 L0,198.618333 C0,201.280407 2.15875965,203.439167 4.82083333,203.439167 L124.3775,203.439167 C127.039574,203.439167 129.198333,201.280407 129.198333,198.618333 L129.198333,79.0616667 C129.198333,76.399593 127.039574,74.2408333 124.3775,74.2408333 L124.3775,74.2408333 Z M127.27,198.618333 C127.265324,200.213876 125.973043,201.506158 124.3775,201.510833 L4.82083333,201.510833 C3.22529041,201.506158 1.93300894,200.213876 1.92833333,198.618333 L1.92833333,79.0616667 C1.93298787,77.466115 3.22528164,76.1738212 4.82083333,76.1691667 L124.3775,76.1691667 C125.973054,76.1738159 127.265351,77.4661128 127.27,79.0616667 L127.27,198.618333 Z" id="Shape" fill="#3F3D56" fill-rule="nonzero"></path>
                <path d="M527.787977,308.210415 L301.365005,308.210415 C296.95105,308.210415 293.373992,305.662122 293.369171,302.521831 L293.369171,253.308836 C293.373992,250.168545 296.95105,247.620253 301.365005,247.620253 L527.787977,247.620253 C532.201932,247.620253 535.77899,250.168545 535.783811,253.308836 L535.783811,302.520867 C535.779954,305.661177 532.201941,308.206568 527.787977,308.210415 Z M301.365005,249.893758 C298.716439,249.893758 296.570204,251.422926 296.567312,253.306908 L296.567312,302.518939 C296.567312,304.40292 298.716439,305.93016 301.365005,305.932089 L527.787977,305.932089 C530.436542,305.932089 532.582777,304.40292 532.58567,302.518939 L532.58567,253.308836 C532.58567,251.424855 530.436542,249.897615 527.787977,249.895686 L301.365005,249.893758 Z" id="acccf4df-3a09-4c7b-a8c8-af469fe66e6d" fill="#3F3D56" fill-rule="nonzero"></path>
            </g>
        </g>
    </g>
</svg>