<?xml version="1.0" encoding="UTF-8"?>
<svg width="650px" height="650px" viewBox="0 0 650 650" version="1.1" xmlns="http://www.w3.org/2000/svg" xmlns:xlink="http://www.w3.org/1999/xlink">
    <title>case-studies</title>
    <defs>
        <linearGradient x1="50%" y1="100%" x2="50%" y2="0%" id="linearGradient-1">
            <stop stop-color="#808080" stop-opacity="0.25" offset="0%"></stop>
            <stop stop-color="#808080" stop-opacity="0.12" offset="54%"></stop>
            <stop stop-color="#808080" stop-opacity="0.1" offset="100%"></stop>
        </linearGradient>
        <linearGradient x1="50%" y1="100%" x2="50%" y2="0%" id="linearGradient-2">
            <stop stop-color="#808080" stop-opacity="0.25" offset="0%"></stop>
            <stop stop-color="#808080" stop-opacity="0.12" offset="54%"></stop>
            <stop stop-color="#808080" stop-opacity="0.1" offset="100%"></stop>
        </linearGradient>
        <linearGradient x1="50%" y1="100%" x2="50%" y2="0%" id="linearGradient-3">
            <stop stop-color="#808080" stop-opacity="0.25" offset="0%"></stop>
            <stop stop-color="#808080" stop-opacity="0.12" offset="54%"></stop>
            <stop stop-color="#808080" stop-opacity="0.1" offset="100%"></stop>
        </linearGradient>
        <rect id="path-4" x="0.378" y="0.504" width="100.653" height="67.851"></rect>
        <rect id="path-6" x="0.378" y="0.294" width="100.653" height="67.851"></rect>
        <linearGradient x1="0%" y1="50%" x2="100%" y2="50%" id="linearGradient-8">
            <stop stop-color="#808080" stop-opacity="0.25" offset="0%"></stop>
            <stop stop-color="#808080" stop-opacity="0.12" offset="54%"></stop>
            <stop stop-color="#808080" stop-opacity="0.1" offset="100%"></stop>
        </linearGradient>
        <linearGradient x1="0.00629643622%" y1="50.0018066%" x2="100.006296%" y2="50.0018066%" id="linearGradient-9">
            <stop stop-color="#808080" stop-opacity="0.25" offset="0%"></stop>
            <stop stop-color="#808080" stop-opacity="0.12" offset="54%"></stop>
            <stop stop-color="#808080" stop-opacity="0.1" offset="100%"></stop>
        </linearGradient>
        <linearGradient x1="50.0002221%" y1="100.000449%" x2="50.0002221%" y2="0.00140337287%" id="linearGradient-10">
            <stop stop-color="#B3B3B3" stop-opacity="0.25" offset="0%"></stop>
            <stop stop-color="#B3B3B3" stop-opacity="0.1" offset="54%"></stop>
            <stop stop-color="#B3B3B3" stop-opacity="0.05" offset="100%"></stop>
        </linearGradient>
        <linearGradient x1="49.9800916%" y1="99.9486916%" x2="49.9800916%" y2="0%" id="linearGradient-11">
            <stop stop-color="#000000" stop-opacity="0.12" offset="0%"></stop>
            <stop stop-color="#000000" stop-opacity="0.09" offset="55%"></stop>
            <stop stop-color="#000000" stop-opacity="0.02" offset="100%"></stop>
        </linearGradient>
        <linearGradient x1="49.9885247%" y1="100.005627%" x2="49.9885247%" y2="0.0076852476%" id="linearGradient-12">
            <stop stop-color="#000000" stop-opacity="0.12" offset="0%"></stop>
            <stop stop-color="#000000" stop-opacity="0.09" offset="55%"></stop>
            <stop stop-color="#000000" stop-opacity="0.02" offset="100%"></stop>
        </linearGradient>
    </defs>
    <g id="case-studies" stroke="none" stroke-width="1" fill="none" fill-rule="evenodd">
        <g id="undraw_file_searching_duff" transform="translate(30.000000, 51.000000)">
            <g id="Group" opacity="0.5" transform="translate(107.800000, 91.700000)" fill="url(#linearGradient-1)" fill-rule="nonzero">
                <rect id="Rectangle" x="0.105" y="0.147" width="313.908" height="421.82"></rect>
            </g>
            <rect id="Rectangle" fill="#F2F2F2" fill-rule="nonzero" x="111.993" y="97.573" width="304.101" height="407.106"></rect>
            <rect id="Rectangle" fill="#E0E0E0" fill-rule="nonzero" x="135.702" y="114.737" width="104.636" height="3.269"></rect>
            <rect id="Rectangle" fill="#2C3176" fill-rule="nonzero" opacity="0.7" x="135.702" y="129.451" width="104.636" height="3.269"></rect>
            <rect id="Rectangle" fill="#E0E0E0" fill-rule="nonzero" x="255.871" y="114.737" width="104.636" height="3.269"></rect>
            <rect id="Rectangle" fill="#E0E0E0" fill-rule="nonzero" x="272.216" y="207.935" width="104.636" height="3.269"></rect>
            <rect id="Rectangle" fill="#E0E0E0" fill-rule="nonzero" x="274.673" y="216.923" width="104.636" height="3.269"></rect>
            <rect id="Rectangle" fill="#E0E0E0" fill-rule="nonzero" x="279.58" y="225.918" width="104.636" height="3.269"></rect>
            <rect id="Rectangle" fill="#E0E0E0" fill-rule="nonzero" x="272.216" y="352.625" width="104.636" height="3.269"></rect>
            <rect id="Rectangle" fill="#E0E0E0" fill-rule="nonzero" x="274.673" y="361.62" width="104.636" height="3.269"></rect>
            <rect id="Rectangle" fill="#E0E0E0" fill-rule="nonzero" x="279.58" y="370.608" width="104.636" height="3.269"></rect>
            <g id="Group" opacity="0.5" transform="translate(136.500000, 174.300000)" fill="url(#linearGradient-2)" fill-rule="nonzero">
                <rect id="Rectangle" x="0.021" y="0.112" width="111.174" height="112.812"></rect>
            </g>
            <rect id="Rectangle" fill="#F5F5F5" fill-rule="nonzero" x="137.221" y="176.869" width="109.424" height="107.905"></rect>
            <g id="Group" opacity="0.5" transform="translate(140.700000, 183.400000)" fill="url(#linearGradient-3)" fill-rule="nonzero">
                <rect id="Rectangle" x="0.378" y="0.007" width="102.06" height="70.301"></rect>
            </g>
            <rect id="e1f34465-d008-41db-868b-e00503fb87b3" fill="#FFFFFF" fill-rule="nonzero" x="141.778" y="184.226" width="100.653" height="67.851"></rect>
            <g id="Clipped" transform="translate(266.700000, 226.100000)">
                <mask id="mask-5" fill="white">
                    <use xlink:href="#path-4"></use>
                </mask>
                <g id="cf34cfb5-9399-4bae-9cea-d47bbef6cb3a"></g>
                <g id="Group" mask="url(#mask-5)" fill="#AA7DCE" fill-rule="nonzero" opacity="0.4">
                    <g transform="translate(-137.200000, -39.900000)">
                        <polygon id="Path" points="3.745 63.427 29.092 24.185 39.718 41.349 62.608 17.647 82.229 41.349 99.393 6.202 143.535 76.503 0.476 71.596"></polygon>
                        <circle id="Oval" cx="23.366" cy="7.833" r="7.357"></circle>
                    </g>
                </g>
            </g>
            <g id="Group" opacity="0.5" transform="translate(136.500000, 318.500000)" fill="url(#linearGradient-2)" fill-rule="nonzero">
                <rect id="Rectangle" x="0.021" y="0.609" width="111.174" height="112.812"></rect>
            </g>
            <rect id="Rectangle" fill="#F5F5F5" fill-rule="nonzero" x="137.221" y="321.559" width="109.424" height="107.905"></rect>
            <g id="Group" opacity="0.5" transform="translate(140.700000, 327.600000)" fill="url(#linearGradient-3)" fill-rule="nonzero">
                <rect id="Rectangle" x="0.378" y="0.504" width="102.06" height="70.301"></rect>
            </g>
            <rect id="c95ac4f6-be4d-44a3-92c2-5c8066e2b531" fill="#FFFFFF" fill-rule="nonzero" x="141.778" y="328.916" width="100.653" height="67.851"></rect>
            <g id="Clipped" transform="translate(266.700000, 371.000000)">
                <mask id="mask-7" fill="white">
                    <use xlink:href="#path-6"></use>
                </mask>
                <g id="7439734d-5f7c-428f-88ce-e68b86a45c07"></g>
                <g id="Group" mask="url(#mask-7)" fill="#BDBDBD" fill-rule="nonzero" opacity="0.4">
                    <g transform="translate(-137.200000, -39.900000)">
                        <polygon id="Path" points="3.745 63.217 29.092 23.975 39.718 41.146 62.608 17.437 82.229 41.146 99.393 5.992 143.535 76.293 0.476 71.393"></polygon>
                        <circle id="Oval" cx="23.366" cy="7.63" r="7.357"></circle>
                    </g>
                </g>
            </g>
            <g id="Group" opacity="0.5" transform="translate(153.300000, 70.700000)" fill="url(#linearGradient-8)" fill-rule="nonzero">
                <rect id="Rectangle" transform="translate(195.743905, 237.763669) rotate(-78.760000) translate(-195.743905, -237.763669) " x="-15.1660948" y="80.8096689" width="421.82" height="313.908"></rect>
            </g>
            <rect id="Rectangle" fill="#FFFFFF" fill-rule="nonzero" transform="translate(348.560161, 306.702885) rotate(-78.760000) translate(-348.560161, -306.702885) " x="145.007161" y="154.652385" width="407.106" height="304.101"></rect>
            <rect id="Rectangle" fill="#E0E0E0" fill-rule="nonzero" transform="translate(362.643488, 122.790667) rotate(11.240000) translate(-362.643488, -122.790667) " x="254.734988" y="121.156167" width="215.817" height="3.269"></rect>
            <rect id="Rectangle" fill="#E0E0E0" fill-rule="nonzero" transform="translate(302.413073, 425.877085) rotate(11.240000) translate(-302.413073, -425.877085) " x="194.504573" y="424.242585" width="215.817" height="3.269"></rect>
            <rect id="Rectangle" fill="#E0E0E0" fill-rule="nonzero" transform="translate(274.687318, 439.531294) rotate(11.240000) translate(-274.687318, -439.531294) " x="191.303318" y="437.896794" width="166.768" height="3.269"></rect>
            <rect id="Rectangle" fill="#2C3176" fill-rule="nonzero" opacity="0.7" transform="translate(219.706097, 447.780183) rotate(11.240000) translate(-219.706097, -447.780183) " x="188.643597" y="446.145683" width="62.125" height="3.269"></rect>
            <rect id="Rectangle" fill="#2C3176" fill-rule="nonzero" opacity="0.7" transform="translate(306.051345, 130.718595) rotate(11.240000) translate(-306.051345, -130.718595) " x="252.098845" y="129.084095" width="107.905" height="3.269"></rect>
            <rect id="Rectangle" fill="#E0E0E0" fill-rule="nonzero" transform="translate(344.890220, 157.603081) rotate(11.240000) translate(-344.890220, -157.603081) " x="247.61122" y="155.968581" width="194.558" height="3.269"></rect>
            <rect id="Rectangle" fill="#A8577E" fill-rule="nonzero" opacity="0.7" transform="translate(269.059585, 161.707171) rotate(11.240000) translate(-269.059585, -161.707171) " x="245.354085" y="160.072671" width="47.411" height="3.269"></rect>
            <rect id="Rectangle" fill="#E0E0E0" fill-rule="nonzero" transform="translate(347.986233, 196.561660) rotate(11.240000) translate(-347.986233, -196.561660) " x="240.077733" y="194.92716" width="215.817" height="3.269"></rect>
            <g id="Group" opacity="0.5" transform="translate(239.400000, 251.300000)" fill="url(#linearGradient-9)" fill-rule="nonzero">
                <rect id="Rectangle" transform="translate(105.892706, 73.923476) rotate(-78.760000) translate(-105.892706, -73.923476) " x="50.3057058" y="-22.9460243" width="111.174" height="193.739"></rect>
            </g>
            <rect id="Rectangle" fill="#FFFFFF" fill-rule="nonzero" transform="translate(345.406571, 324.823483) rotate(11.240000) translate(-345.406571, -324.823483) " x="249.762071" y="270.461483" width="191.289" height="108.724"></rect>
            <rect id="Rectangle" fill="#E0E0E0" fill-rule="nonzero" transform="translate(344.321304, 215.008909) rotate(11.240000) translate(-344.321304, -215.008909) " x="236.412804" y="213.374409" width="215.817" height="3.269"></rect>
            <rect id="Rectangle" fill="#2C3176" fill-rule="nonzero" transform="translate(282.872327, 312.396084) rotate(11.240000) translate(-282.872327, -312.396084) " x="271.017827" y="272.748084" width="23.709" height="79.296"></rect>
            <rect id="Rectangle" fill="#A8577E" fill-rule="nonzero" transform="translate(322.014703, 333.512489) rotate(11.240000) translate(-322.014703, -333.512489) " x="310.160203" y="306.943989" width="23.709" height="53.137"></rect>
            <rect id="Rectangle" fill="#F5D7E3" fill-rule="nonzero" transform="translate(361.324219, 353.825149) rotate(11.240000) translate(-361.324219, -353.825149) " x="349.469719" y="339.520649" width="23.709" height="28.609"></rect>
            <rect id="Rectangle" fill="#F5BEC9" fill-rule="nonzero" transform="translate(405.885780, 347.680453) rotate(11.240000) translate(-405.885780, -347.680453) " x="394.03128" y="318.658453" width="23.709" height="58.044"></rect>
            <path d="M491.015,245.707 C470.638714,224.514004 442.573001,212.439491 413.174241,212.218121 C383.77548,211.996751 355.531121,223.647253 334.838,244.531 C293.538,286.167 292.838,353.962 333.235,396.48 C369.878094,435.04897 428.993516,441.572663 473.165,411.922 L552.048,493.969 C554.081729,496.083203 557.444105,496.149009 559.559,494.116 L579.215,475.216 C581.329203,473.182271 581.395009,469.819895 579.362,467.705 L500.5,385.665 C531.712424,342.889631 527.713325,283.880035 491.015,245.707 Z M466.445,377.622 C435.370715,407.495702 385.962781,406.523032 356.088335,375.449462 C326.21389,344.375893 327.185377,294.967935 358.258231,265.092746 C389.331086,235.217556 438.739067,236.187861 468.615,267.26 C482.962845,282.18232 490.794838,302.193327 490.387879,322.890445 C489.980921,343.587562 481.36835,363.275227 466.445,377.622 L466.445,377.622 Z" id="Shape" fill="url(#linearGradient-10)" fill-rule="nonzero"></path>
            <path d="M354.543,299.642 C345.765,299.642 345.751,313.285 354.543,313.285 C363.335,313.285 363.335,299.642 354.543,299.642 Z" id="Path" fill="url(#linearGradient-11)" fill-rule="nonzero"></path>
            <path d="M415.73,255.941 C392.105,255.409 370.608,267.26 359.177,285.152 C355.446,290.99 366.037,296.149 369.747,290.339 C379.211,275.527 397.194,266.119 416.647,266.609 C437.031,267.12 455.581,278.782 465.402,294.966 C469.126,301.105 478.891,295.526 475.202,289.422 C463.26,269.822 440.132,256.522 415.73,255.941 Z" id="Path" fill="url(#linearGradient-12)" fill-rule="nonzero"></path>
            <path d="M499.576,241.563 C479.199714,220.370004 451.134001,208.295491 421.735241,208.074121 C392.33648,207.852751 364.092121,219.503253 343.399,240.387 C302.099,282.023 301.399,349.818 341.796,392.336 C378.440916,430.902715 437.55616,437.423431 481.726,407.771 L560.602,489.825 C562.635729,491.939203 565.998105,492.005009 568.113,489.972 L587.769,471.072 C589.883203,469.038271 589.949009,465.675895 587.916,463.561 L509.033,381.514 C540.248951,338.746618 536.261794,279.742013 499.576,241.563 L499.576,241.563 Z M475.006,373.422 C443.931715,403.295702 394.523781,402.323032 364.649335,371.249462 C334.77489,340.175893 335.746377,290.767935 366.819231,260.892746 C397.892086,231.017556 447.300067,231.987861 477.176,263.06 C491.523845,277.98232 499.355838,297.993327 498.948879,318.690445 C498.541921,339.387562 489.92935,359.075227 475.006,373.422 Z" id="Shape" fill="#AA7DCE" fill-rule="nonzero"></path>
            <path d="M363.104,295.491 C354.326,295.491 354.312,309.134 363.104,309.134 C371.896,309.134 371.896,295.491 363.104,295.491 Z" id="Path" fill="#AA7DCE" fill-rule="nonzero"></path>
            <path d="M424.291,251.797 C400.666,251.265 379.169,263.116 367.738,281.008 C364.007,286.846 374.598,292.005 378.308,286.195 C387.772,271.383 405.755,261.975 425.208,262.465 C445.592,262.976 464.142,274.638 473.963,290.822 C477.687,296.961 487.452,291.382 483.763,285.278 C471.8,265.622 448.7,252.322 424.291,251.797 Z" id="Path" fill="#AA7DCE" fill-rule="nonzero"></path>
            <rect id="Rectangle" fill="#A8577E" fill-rule="nonzero" x="85.015" y="465.437" width="2.45" height="13.895"></rect>
            <rect id="Rectangle" fill="#A8577E" fill-rule="nonzero" transform="translate(86.243500, 472.381000) rotate(90.000000) translate(-86.243500, -472.381000) " x="85.0185" y="465.4335" width="2.45" height="13.895"></rect>
            <path d="M400.309,6.265 C398.908672,5.65558063 398.188748,4.09223198 398.636,2.632 C398.670249,2.52289425 398.691397,2.41010184 398.699,2.296 L398.699,2.296 C398.744572,1.62970668 398.345598,1.01307558 397.719147,0.78159625 C397.092696,0.550116925 396.388626,0.759163372 395.99,1.295 L395.99,1.295 C395.922648,1.38606205 395.866259,1.48474223 395.822,1.589 C395.212581,2.98932847 393.649232,3.70925203 392.189,3.262 C392.079894,3.22775139 391.967102,3.20660282 391.853,3.199 L391.853,3.199 C391.181323,3.1505027 390.559182,3.55411109 390.329697,4.18722946 C390.100212,4.82034783 390.319246,5.52885528 390.866,5.922 L390.866,5.922 C390.957062,5.98935192 391.055742,6.0457406 391.16,6.09 C392.560328,6.69941937 393.280252,8.26276802 392.833,9.723 C392.798751,9.83210575 392.777603,9.94489816 392.77,10.059 L392.77,10.059 C392.71622,10.7348424 393.120969,11.363211 393.758558,11.5937238 C394.396146,11.8242366 395.109152,11.5999796 395.5,11.046 L395.5,11.046 C395.567352,10.954938 395.623741,10.8562578 395.668,10.752 C396.277419,9.35167153 397.840768,8.63174797 399.301,9.079 C399.410106,9.11324861 399.522898,9.13439718 399.637,9.142 L399.637,9.142 C400.303293,9.18757188 400.919924,8.78859765 401.151404,8.16214661 C401.382883,7.53569557 401.173837,6.831626 400.638,6.433 L400.638,6.433 C400.53599,6.3631263 400.425416,6.30666309 400.309,6.265 L400.309,6.265 Z" id="Path" fill="#7360B7" fill-rule="nonzero"></path>
            <path d="M96.208,109.27 C94.8076715,108.660581 94.087748,107.097232 94.535,105.637 C94.5692486,105.527894 94.5903972,105.415102 94.598,105.301 L94.598,105.301 C94.6435719,104.634707 94.2445976,104.018076 93.6181466,103.786596 C92.9916956,103.555117 92.287626,103.764163 91.889,104.3 L91.889,104.3 C91.8216481,104.391062 91.7652594,104.489742 91.721,104.594 C91.1115806,105.994328 89.548232,106.714252 88.088,106.267 C87.9788942,106.232751 87.8661018,106.211603 87.752,106.204 L87.752,106.204 C87.0857067,106.158428 86.4690756,106.557402 86.2375963,107.183853 C86.0061169,107.810304 86.2151634,108.514374 86.751,108.913 L86.751,108.913 C86.842062,108.980352 86.9407422,109.036741 87.045,109.081 C88.4453285,109.690419 89.165252,111.253768 88.718,112.714 C88.6837514,112.823106 88.6626028,112.935898 88.655,113.05 L88.655,113.05 C88.6094281,113.716293 89.0084024,114.332924 89.6348534,114.564404 C90.2613044,114.795883 90.965374,114.586837 91.364,114.051 L91.364,114.051 C91.4313519,113.959938 91.4877406,113.861258 91.532,113.757 C92.1414194,112.356672 93.704768,111.636748 95.165,112.084 C95.2741058,112.118249 95.3868982,112.139397 95.501,112.147 L95.501,112.147 C96.1672933,112.192572 96.7839244,111.793598 97.0154037,111.167147 C97.2468831,110.540696 97.0378366,109.836626 96.502,109.438 L96.502,109.438 C96.410938,109.370648 96.3122578,109.314259 96.208,109.27 L96.208,109.27 Z" id="Path" fill="#F5BEC9" fill-rule="nonzero"></path>
            <path d="M528.654,534.352 C527.253672,533.742581 526.533748,532.179232 526.981,530.719 C527.015249,530.609894 527.036397,530.497102 527.044,530.383 L527.044,530.383 C527.089572,529.716707 526.690598,529.100076 526.064147,528.868596 C525.437696,528.637117 524.733626,528.846163 524.335,529.382 L524.335,529.382 C524.267648,529.473062 524.211259,529.571742 524.167,529.676 C523.557581,531.076328 521.994232,531.796252 520.534,531.349 C520.424894,531.314751 520.312102,531.293603 520.198,531.286 L520.198,531.286 C519.531707,531.240428 518.915076,531.639402 518.683596,532.265853 C518.452117,532.892304 518.661163,533.596374 519.197,533.995 L519.197,533.995 C519.288062,534.062352 519.386742,534.118741 519.491,534.163 C520.891328,534.772419 521.611252,536.335768 521.164,537.796 C521.129751,537.905106 521.108603,538.017898 521.101,538.132 L521.101,538.132 C521.055428,538.798293 521.454402,539.414924 522.080853,539.646404 C522.707304,539.877883 523.411374,539.668837 523.81,539.133 L523.81,539.133 C523.877352,539.041938 523.933741,538.943258 523.978,538.839 C524.587419,537.438672 526.150768,536.718748 527.611,537.166 C527.720106,537.200249 527.832898,537.221397 527.947,537.229 L527.947,537.229 C528.613293,537.274572 529.229924,536.875598 529.461404,536.249147 C529.692883,535.622696 529.483837,534.918626 528.948,534.52 L528.948,534.52 C528.856938,534.452648 528.758258,534.396259 528.654,534.352 Z" id="Path" fill="#F5BEC9" fill-rule="nonzero"></path>
            <circle id="Oval" fill="#F55F44" fill-rule="nonzero" cx="224.805" cy="53.431" r="4.907"></circle>
            <circle id="Oval" fill="#F55F44" fill-rule="nonzero" cx="576.317" cy="114.737" r="4.907"></circle>
            <circle id="Oval" fill="#7360B7" fill-rule="nonzero" cx="548.527" cy="261.065" r="4.907"></circle>
            <circle id="Oval" fill="#A8577E" fill-rule="nonzero" opacity="0.5" cx="4.907" cy="20.727" r="4.907"></circle>
        </g>
    </g>
</svg>