<?xml version="1.0" encoding="UTF-8"?>
<svg width="650px" height="650px" viewBox="0 0 650 650" version="1.1" xmlns="http://www.w3.org/2000/svg" xmlns:xlink="http://www.w3.org/1999/xlink">
    <title>case-studies</title>
    <defs>
        <linearGradient x1="50%" y1="100%" x2="50%" y2="0%" id="linearGradient-1">
            <stop stop-color="#808080" stop-opacity="0.25" offset="0%"></stop>
            <stop stop-color="#808080" stop-opacity="0.12" offset="54%"></stop>
            <stop stop-color="#808080" stop-opacity="0.1" offset="100%"></stop>
        </linearGradient>
        <linearGradient x1="50%" y1="100%" x2="50%" y2="0%" id="linearGradient-2">
            <stop stop-color="#808080" stop-opacity="0.25" offset="0%"></stop>
            <stop stop-color="#808080" stop-opacity="0.12" offset="54%"></stop>
            <stop stop-color="#808080" stop-opacity="0.1" offset="100%"></stop>
        </linearGradient>
        <linearGradient x1="50%" y1="100%" x2="50%" y2="0%" id="linearGradient-3">
            <stop stop-color="#808080" stop-opacity="0.25" offset="0%"></stop>
            <stop stop-color="#808080" stop-opacity="0.12" offset="54%"></stop>
            <stop stop-color="#808080" stop-opacity="0.1" offset="100%"></stop>
        </linearGradient>
        <rect id="path-4" x="0.378" y="0.504" width="100.653" height="67.851"></rect>
        <rect id="path-6" x="0.378" y="0.294" width="100.653" height="67.851"></rect>
        <linearGradient x1="0%" y1="50%" x2="100%" y2="50%" id="linearGradient-8">
            <stop stop-color="#808080" stop-opacity="0.25" offset="0%"></stop>
            <stop stop-color="#808080" stop-opacity="0.12" offset="54%"></stop>
            <stop stop-color="#808080" stop-opacity="0.1" offset="100%"></stop>
        </linearGradient>
        <linearGradient x1="0.00629643622%" y1="50.0018066%" x2="100.006296%" y2="50.0018066%" id="linearGradient-9">
            <stop stop-color="#808080" stop-opacity="0.25" offset="0%"></stop>
            <stop stop-color="#808080" stop-opacity="0.12" offset="54%"></stop>
            <stop stop-color="#808080" stop-opacity="0.1" offset="100%"></stop>
        </linearGradient>
        <linearGradient x1="50.0002221%" y1="100.000449%" x2="50.0002221%" y2="0.00140337287%" id="linearGradient-10">
            <stop stop-color="#B3B3B3" stop-opacity="0.25" offset="0%"></stop>
            <stop stop-color="#B3B3B3" stop-opacity="0.1" offset="54%"></stop>
            <stop stop-color="#B3B3B3" stop-opacity="0.05" offset="100%"></stop>
        </linearGradient>
        <linearGradient x1="49.9800916%" y1="99.9486916%" x2="49.9800916%" y2="0%" id="linearGradient-11">
            <stop stop-color="#000000" stop-opacity="0.12" offset="0%"></stop>
            <stop stop-color="#000000" stop-opacity="0.09" offset="55%"></stop>
            <stop stop-color="#000000" stop-opacity="0.02" offset="100%"></stop>
        </linearGradient>
        <linearGradient x1="49.9885247%" y1="100.005627%" x2="49.9885247%" y2="0.0076852476%" id="linearGradient-12">
            <stop stop-color="#000000" stop-opacity="0.12" offset="0%"></stop>
            <stop stop-color="#000000" stop-opacity="0.09" offset="55%"></stop>
            <stop stop-color="#000000" stop-opacity="0.02" offset="100%"></stop>
        </linearGradient>
    </defs>
    <g id="case-studies" stroke="none" stroke-width="1" fill="none" fill-rule="evenodd">
        <path d="M57.7882597,199.4 C71.4978747,123.8 107.241788,86 165.02,86 C251.687318,86 262.921403,153.038393 331.545624,153.038393 C400.169846,153.038393 498.345517,132.691704 521.3,177.707171 C544.254483,222.722638 506.862951,228.524984 521.3,303.3 C535.737049,378.075016 588.272497,377.62 561.512189,448.5 C534.751882,519.38 440.719083,469.892548 400.169846,503.897456 C340.240764,554.154454 323.038557,577.61302 259.872327,577.61302 C196.706097,577.61302 80.1899574,510.084925 68.9891085,419.240504 C61.521876,358.677557 57.7882597,285.397389 57.7882597,199.4 Z" id="Path-3" fill-opacity="0.1" fill="#AA7DCE"></path>
        <g id="undraw_file_searching_duff" transform="translate(84.000000, 86.000000)">
            <g id="Group" opacity="0.5" transform="translate(0.800000, 21.700000)" fill="url(#linearGradient-1)" fill-rule="nonzero">
                <rect id="Rectangle" x="0.105" y="0.147" width="313.908" height="421.82"></rect>
            </g>
            <rect id="Rectangle" fill="#F2F2F2" fill-rule="nonzero" x="4.993" y="27.573" width="304.101" height="407.106"></rect>
            <rect id="Rectangle" fill="#E0E0E0" fill-rule="nonzero" x="28.702" y="44.737" width="104.636" height="3.269"></rect>
            <rect id="Rectangle" fill="#2C3176" fill-rule="nonzero" opacity="0.7" x="28.702" y="59.451" width="104.636" height="3.269"></rect>
            <rect id="Rectangle" fill="#E0E0E0" fill-rule="nonzero" x="148.871" y="44.737" width="104.636" height="3.269"></rect>
            <rect id="Rectangle" fill="#E0E0E0" fill-rule="nonzero" x="165.216" y="137.935" width="104.636" height="3.269"></rect>
            <rect id="Rectangle" fill="#E0E0E0" fill-rule="nonzero" x="167.673" y="146.923" width="104.636" height="3.269"></rect>
            <rect id="Rectangle" fill="#E0E0E0" fill-rule="nonzero" x="172.58" y="155.918" width="104.636" height="3.269"></rect>
            <rect id="Rectangle" fill="#E0E0E0" fill-rule="nonzero" x="165.216" y="282.625" width="104.636" height="3.269"></rect>
            <rect id="Rectangle" fill="#E0E0E0" fill-rule="nonzero" x="167.673" y="291.62" width="104.636" height="3.269"></rect>
            <rect id="Rectangle" fill="#E0E0E0" fill-rule="nonzero" x="172.58" y="300.608" width="104.636" height="3.269"></rect>
            <g id="Group" opacity="0.5" transform="translate(29.500000, 104.300000)" fill="url(#linearGradient-2)" fill-rule="nonzero">
                <rect id="Rectangle" x="0.021" y="0.112" width="111.174" height="112.812"></rect>
            </g>
            <rect id="Rectangle" fill="#F5F5F5" fill-rule="nonzero" x="30.221" y="106.869" width="109.424" height="107.905"></rect>
            <g id="Group" opacity="0.5" transform="translate(33.700000, 113.400000)" fill="url(#linearGradient-3)" fill-rule="nonzero">
                <rect id="Rectangle" x="0.378" y="0.007" width="102.06" height="70.301"></rect>
            </g>
            <rect id="e1f34465-d008-41db-868b-e00503fb87b3" fill="#FFFFFF" fill-rule="nonzero" x="34.778" y="114.226" width="100.653" height="67.851"></rect>
            <g id="Clipped" transform="translate(159.700000, 156.100000)">
                <mask id="mask-5" fill="white">
                    <use xlink:href="#path-4"></use>
                </mask>
                <g id="cf34cfb5-9399-4bae-9cea-d47bbef6cb3a"></g>
                <g id="Group" mask="url(#mask-5)" fill="#AA7DCE" fill-rule="nonzero" opacity="0.4">
                    <g transform="translate(-137.200000, -39.900000)">
                        <polygon id="Path" points="3.745 63.427 29.092 24.185 39.718 41.349 62.608 17.647 82.229 41.349 99.393 6.202 143.535 76.503 0.476 71.596"></polygon>
                        <circle id="Oval" cx="23.366" cy="7.833" r="7.357"></circle>
                    </g>
                </g>
            </g>
            <g id="Group" opacity="0.5" transform="translate(29.500000, 248.500000)" fill="url(#linearGradient-2)" fill-rule="nonzero">
                <rect id="Rectangle" x="0.021" y="0.609" width="111.174" height="112.812"></rect>
            </g>
            <rect id="Rectangle" fill="#F5F5F5" fill-rule="nonzero" x="30.221" y="251.559" width="109.424" height="107.905"></rect>
            <g id="Group" opacity="0.5" transform="translate(33.700000, 257.600000)" fill="url(#linearGradient-3)" fill-rule="nonzero">
                <rect id="Rectangle" x="0.378" y="0.504" width="102.06" height="70.301"></rect>
            </g>
            <rect id="c95ac4f6-be4d-44a3-92c2-5c8066e2b531" fill="#FFFFFF" fill-rule="nonzero" x="34.778" y="258.916" width="100.653" height="67.851"></rect>
            <g id="Clipped" transform="translate(159.700000, 301.000000)">
                <mask id="mask-7" fill="white">
                    <use xlink:href="#path-6"></use>
                </mask>
                <g id="7439734d-5f7c-428f-88ce-e68b86a45c07"></g>
                <g id="Group" mask="url(#mask-7)" fill="#BDBDBD" fill-rule="nonzero" opacity="0.4">
                    <g transform="translate(-137.200000, -39.900000)">
                        <polygon id="Path" points="3.745 63.217 29.092 23.975 39.718 41.146 62.608 17.437 82.229 41.146 99.393 5.992 143.535 76.293 0.476 71.393"></polygon>
                        <circle id="Oval" cx="23.366" cy="7.63" r="7.357"></circle>
                    </g>
                </g>
            </g>
            <g id="Group" opacity="0.5" transform="translate(46.300000, 0.700000)" fill="url(#linearGradient-8)" fill-rule="nonzero">
                <rect id="Rectangle" transform="translate(195.743905, 237.763669) rotate(-78.760000) translate(-195.743905, -237.763669) " x="-15.1660948" y="80.8096689" width="421.82" height="313.908"></rect>
            </g>
            <rect id="Rectangle" fill="#FFFFFF" fill-rule="nonzero" transform="translate(241.560161, 236.702885) rotate(-78.760000) translate(-241.560161, -236.702885) " x="38.0071611" y="84.6523851" width="407.106" height="304.101"></rect>
            <rect id="Rectangle" fill="#E0E0E0" fill-rule="nonzero" transform="translate(255.643488, 52.790667) rotate(11.240000) translate(-255.643488, -52.790667) " x="147.734988" y="51.156167" width="215.817" height="3.269"></rect>
            <rect id="Rectangle" fill="#E0E0E0" fill-rule="nonzero" transform="translate(195.413073, 355.877085) rotate(11.240000) translate(-195.413073, -355.877085) " x="87.5045727" y="354.242585" width="215.817" height="3.269"></rect>
            <rect id="Rectangle" fill="#E0E0E0" fill-rule="nonzero" transform="translate(167.687318, 369.531294) rotate(11.240000) translate(-167.687318, -369.531294) " x="84.3033177" y="367.896794" width="166.768" height="3.269"></rect>
            <rect id="Rectangle" fill="#2C3176" fill-rule="nonzero" opacity="0.7" transform="translate(112.706097, 377.780183) rotate(11.240000) translate(-112.706097, -377.780183) " x="81.6435973" y="376.145683" width="62.125" height="3.269"></rect>
            <rect id="Rectangle" fill="#2C3176" fill-rule="nonzero" opacity="0.7" transform="translate(199.051345, 60.718595) rotate(11.240000) translate(-199.051345, -60.718595) " x="145.098845" y="59.0840949" width="107.905" height="3.269"></rect>
            <rect id="Rectangle" fill="#E0E0E0" fill-rule="nonzero" transform="translate(237.890220, 87.603081) rotate(11.240000) translate(-237.890220, -87.603081) " x="140.61122" y="85.9685814" width="194.558" height="3.269"></rect>
            <rect id="Rectangle" fill="#A8577E" fill-rule="nonzero" opacity="0.7" transform="translate(162.059585, 91.707171) rotate(11.240000) translate(-162.059585, -91.707171) " x="138.354085" y="90.0726711" width="47.411" height="3.269"></rect>
            <rect id="Rectangle" fill="#E0E0E0" fill-rule="nonzero" transform="translate(240.986233, 126.561660) rotate(11.240000) translate(-240.986233, -126.561660) " x="133.077733" y="124.92716" width="215.817" height="3.269"></rect>
            <g id="Group" opacity="0.5" transform="translate(132.400000, 181.300000)" fill="url(#linearGradient-9)" fill-rule="nonzero">
                <rect id="Rectangle" transform="translate(105.892706, 73.923476) rotate(-78.760000) translate(-105.892706, -73.923476) " x="50.3057058" y="-22.9460243" width="111.174" height="193.739"></rect>
            </g>
            <rect id="Rectangle" fill="#FFFFFF" fill-rule="nonzero" transform="translate(238.406571, 254.823483) rotate(11.240000) translate(-238.406571, -254.823483) " x="142.762071" y="200.461483" width="191.289" height="108.724"></rect>
            <rect id="Rectangle" fill="#E0E0E0" fill-rule="nonzero" transform="translate(237.321304, 145.008909) rotate(11.240000) translate(-237.321304, -145.008909) " x="129.412804" y="143.374409" width="215.817" height="3.269"></rect>
            <rect id="Rectangle" fill="#2C3176" fill-rule="nonzero" transform="translate(175.872327, 242.396084) rotate(11.240000) translate(-175.872327, -242.396084) " x="164.017827" y="202.748084" width="23.709" height="79.296"></rect>
            <rect id="Rectangle" fill="#A8577E" fill-rule="nonzero" transform="translate(215.014703, 263.512489) rotate(11.240000) translate(-215.014703, -263.512489) " x="203.160203" y="236.943989" width="23.709" height="53.137"></rect>
            <rect id="Rectangle" fill="#F5D7E3" fill-rule="nonzero" transform="translate(254.324219, 283.825149) rotate(11.240000) translate(-254.324219, -283.825149) " x="242.469719" y="269.520649" width="23.709" height="28.609"></rect>
            <rect id="Rectangle" fill="#F5BEC9" fill-rule="nonzero" transform="translate(298.885780, 277.680453) rotate(11.240000) translate(-298.885780, -277.680453) " x="287.03128" y="248.658453" width="23.709" height="58.044"></rect>
            <path d="M384.015,175.707 C363.638714,154.514004 335.573001,142.439491 306.174241,142.218121 C276.77548,141.996751 248.531121,153.647253 227.838,174.531 C186.538,216.167 185.838,283.962 226.235,326.48 C262.878094,365.04897 321.993516,371.572663 366.165,341.922 L445.048,423.969 C447.081729,426.083203 450.444105,426.149009 452.559,424.116 L472.215,405.216 C474.329203,403.182271 474.395009,399.819895 472.362,397.705 L393.5,315.665 C424.712424,272.889631 420.713325,213.880035 384.015,175.707 Z M359.445,307.622 C328.370715,337.495702 278.962781,336.523032 249.088335,305.449462 C219.21389,274.375893 220.185377,224.967935 251.258231,195.092746 C282.331086,165.217556 331.739067,166.187861 361.615,197.26 C375.962845,212.18232 383.794838,232.193327 383.387879,252.890445 C382.980921,273.587562 374.36835,293.275227 359.445,307.622 L359.445,307.622 Z" id="Shape" fill="url(#linearGradient-10)" fill-rule="nonzero"></path>
            <path d="M247.543,229.642 C238.765,229.642 238.751,243.285 247.543,243.285 C256.335,243.285 256.335,229.642 247.543,229.642 Z" id="Path" fill="url(#linearGradient-11)" fill-rule="nonzero"></path>
            <path d="M308.73,185.941 C285.105,185.409 263.608,197.26 252.177,215.152 C248.446,220.99 259.037,226.149 262.747,220.339 C272.211,205.527 290.194,196.119 309.647,196.609 C330.031,197.12 348.581,208.782 358.402,224.966 C362.126,231.105 371.891,225.526 368.202,219.422 C356.26,199.822 333.132,186.522 308.73,185.941 Z" id="Path" fill="url(#linearGradient-12)" fill-rule="nonzero"></path>
            <path d="M392.576,171.563 C372.199714,150.370004 344.134001,138.295491 314.735241,138.074121 C285.33648,137.852751 257.092121,149.503253 236.399,170.387 C195.099,212.023 194.399,279.818 234.796,322.336 C271.440916,360.902715 330.55616,367.423431 374.726,337.771 L453.602,419.825 C455.635729,421.939203 458.998105,422.005009 461.113,419.972 L480.769,401.072 C482.883203,399.038271 482.949009,395.675895 480.916,393.561 L402.033,311.514 C433.248951,268.746618 429.261794,209.742013 392.576,171.563 L392.576,171.563 Z M368.006,303.422 C336.931715,333.295702 287.523781,332.323032 257.649335,301.249462 C227.77489,270.175893 228.746377,220.767935 259.819231,190.892746 C290.892086,161.017556 340.300067,161.987861 370.176,193.06 C384.523845,207.98232 392.355838,227.993327 391.948879,248.690445 C391.541921,269.387562 382.92935,289.075227 368.006,303.422 Z" id="Shape" fill="#AA7DCE" fill-rule="nonzero"></path>
            <path d="M256.104,225.491 C247.326,225.491 247.312,239.134 256.104,239.134 C264.896,239.134 264.896,225.491 256.104,225.491 Z" id="Path" fill="#AA7DCE" fill-rule="nonzero"></path>
            <path d="M317.291,181.797 C293.666,181.265 272.169,193.116 260.738,211.008 C257.007,216.846 267.598,222.005 271.308,216.195 C280.772,201.383 298.755,191.975 318.208,192.465 C338.592,192.976 357.142,204.638 366.963,220.822 C370.687,226.961 380.452,221.382 376.763,215.278 C364.8,195.622 341.7,182.322 317.291,181.797 Z" id="Path" fill="#AA7DCE" fill-rule="nonzero"></path>
        </g>
    </g>
</svg>