<?xml version="1.0" encoding="UTF-8"?>
<svg width="650px" height="650px" viewBox="0 0 650 650" version="1.1" xmlns="http://www.w3.org/2000/svg" xmlns:xlink="http://www.w3.org/1999/xlink">
    <title>e-books</title>
    <defs>
        <linearGradient x1="50%" y1="99.9981053%" x2="50%" y2="0.00457553381%" id="linearGradient-1">
            <stop stop-color="#808080" stop-opacity="0.25" offset="0%"></stop>
            <stop stop-color="#808080" stop-opacity="0.12" offset="54%"></stop>
            <stop stop-color="#808080" stop-opacity="0.1" offset="100%"></stop>
        </linearGradient>
    </defs>
    <g id="e-books" stroke="none" stroke-width="1" fill="none" fill-rule="evenodd">
        <g id="Group-3" transform="translate(0.000000, 87.000000)">
            <g id="undraw_Bibliophile_hwqc" transform="translate(0.000000, 0.055556)">
                <path d="M586.041171,273.97657 C563.219208,311.353812 567.254881,362.121718 577.032853,402.152965 C580.305563,415.557033 584.086915,429.691622 581.175609,444.710879 C577.615115,463.074452 564.858909,477.550845 551.975543,485.834558 C528.484314,500.947644 501.740454,500.639351 482.371903,485.037016 C465.606795,471.552524 454.630836,447.961366 437.531096,435.207396 C408.879828,413.861418 369.419918,427.044318 335.093277,447.271056 C310.805622,461.573196 284.075147,479.675389 261.741748,469.588829 C246.027388,462.491375 236.309649,442.318253 231.80549,420.335583 C229.637069,409.726263 228.352079,398.131745 223.312508,390.055794 C220.314197,385.257138 216.178135,382.053566 211.888141,379.433071 C172.729401,355.526916 119.529465,375.880993 81.7895678,348.784671 C56.2972346,330.481416 41.9147131,292.527799 37.3168573,251.893369 C32.7190014,211.258938 36.7881373,167.729229 41.8611719,124.869724 C45.4885924,94.4156822 50.3608472,61.8035861 66.18229,36.9725511 C82.9139343,10.7072809 109.175923,-1.10170255 131.944345,1.25071129 C154.712766,3.60312514 174.429336,18.2336648 191.401916,36.1012867 C212.617641,58.4324631 231.705101,86.9898288 259.25208,94.1006866 C277.991521,98.946257 298.551366,93.1556999 318.515564,89.8448952 C351.891848,84.3090154 384.772875,85.7164424 417.406274,87.5997139 C448.654293,89.402561 480.096399,91.6946565 509.175997,102.766416 C529.755919,110.601094 545.503743,127.027778 564.691593,137.670608 C577.20017,144.607213 591.341756,145.431563 602.98698,154.707178 C617.329346,166.100635 629.690684,187.279062 623.814531,214.093899 C618.226162,239.595137 598.148189,254.145252 586.041171,273.97657 Z" id="Path" fill="#AA7DCE" fill-rule="nonzero" opacity="0.1"></path>
                <path d="M177.125,168.893519 C177.125,168.893519 88.5685185,149.092593 201.247222,33.2421296 C201.247222,33.2421296 249.816667,79.2777778 232.001852,136.501852 C224.839815,159.510648 201.788889,173.714352 178.437037,169.164352 L177.125,168.893519 Z" id="Path" fill="#AA7DCE" fill-rule="nonzero"></path>
                <path d="M177.125,168.893519 C175.181019,168.460185 90.4583333,147.136574 201.247222,33.2421296 C201.247222,33.2421296 249.816667,79.2777778 232.001852,136.501852 C224.839815,159.510648 201.788889,173.714352 178.437037,169.164352 L177.125,168.893519 Z" id="Path" fill="#FFFFFF" fill-rule="nonzero" opacity="0.0999395461"></path>
                <path d="M178.298611,169.555556 C178.298611,169.555556 225.074537,99.0907407 201.259259,33.2481481" id="Path" stroke="#535461" stroke-width="0.601851852"></path>
                <path d="M541.431944,237.318056 C541.431944,237.318056 526.168981,175.862963 549.298148,132.108333 C559.012037,113.745833 562.869907,92.825463 559.625926,72.3083333 C558.068708,62.5758519 555.62299,53.0065272 552.319444,43.7203704" id="Path" stroke="#535461" stroke-width="1.2037037"></path>
                <path d="M566.733796,16.0592593 C566.414815,23.4981481 552.024537,44.4847222 552.024537,44.4847222 C552.024537,44.4847222 539.481944,22.3425926 539.800926,14.9037037 C540.26117,7.57684718 546.49923,1.96511141 553.83378,2.27980047 C561.168329,2.59448954 566.902807,8.71990736 566.733796,16.0592593 L566.733796,16.0592593 Z" id="Path" fill="#AA7DCE" fill-rule="nonzero"></path>
                <path d="M587.23287,58.2069444 C582.923611,64.2796296 559.433333,74.0777778 559.433333,74.0777778 C559.433333,74.0777778 560.937963,48.6736111 565.247222,42.6009259 C567.988398,38.5551683 572.704357,36.3096184 577.573021,36.7318758 C582.441686,37.1541331 586.700624,40.1780724 588.704335,44.6353521 C590.708045,49.0926318 590.142747,54.2852418 587.226852,58.2069444 L587.23287,58.2069444 Z" id="Path" fill="#AA7DCE" fill-rule="nonzero"></path>
                <path d="M583.242593,128.563426 C576.459722,131.626852 551.236111,128.232407 551.236111,128.232407 C551.236111,128.232407 565.361574,107.065278 572.144444,103.995833 C578.894862,101.100537 586.720749,104.141864 589.744608,110.835678 C592.768467,117.529493 589.877356,125.41211 583.242593,128.563426 L583.242593,128.563426 Z" id="Path" fill="#AA7DCE" fill-rule="nonzero"></path>
                <path d="M568.238426,181.11713 C562.069444,185.281944 536.635185,186.196759 536.635185,186.196759 C536.635185,186.196759 546.981019,162.947222 553.15,158.776389 C559.31494,154.771233 567.55209,156.443759 571.666755,162.536155 C575.78142,168.628551 574.256333,176.894269 568.238426,181.11713 Z" id="Path" fill="#AA7DCE" fill-rule="nonzero"></path>
                <path d="M531.098148,74.3305556 C536.20787,79.7472222 560.835648,86.175 560.835648,86.175 C560.835648,86.175 555.804167,61.2282407 550.694444,55.8175926 C545.549674,50.5728113 537.152701,50.4130598 531.812163,55.4583592 C526.471625,60.5036587 526.154102,68.896147 531.098148,74.3305556 L531.098148,74.3305556 Z" id="Path" fill="#AA7DCE" fill-rule="nonzero"></path>
                <path d="M514.330556,135.990278 C520.830556,139.601389 546.228704,138.397685 546.228704,138.397685 C546.228704,138.397685 533.993056,116.093056 527.487037,112.463889 C521.014611,109.045314 512.996841,111.415964 509.424162,117.80462 C505.851484,124.193275 508.029339,132.265546 514.330556,135.990278 L514.330556,135.990278 Z" id="Path" fill="#AA7DCE" fill-rule="nonzero"></path>
                <path d="M506.259722,198.17963 C512.049537,202.856019 537.309259,205.943519 537.309259,205.943519 C537.309259,205.943519 528.991667,181.869444 523.201852,177.211111 C517.401077,172.711679 509.066523,173.680677 504.452755,179.390933 C499.838986,185.101188 500.642239,193.453345 506.259722,198.17963 L506.259722,198.17963 Z" id="Path" fill="#AA7DCE" fill-rule="nonzero"></path>
                <path d="M566.733796,16.0592593 C566.414815,23.4981481 552.024537,44.4847222 552.024537,44.4847222 C552.024537,44.4847222 539.481944,22.3425926 539.800926,14.9037037 C540.26117,7.57684718 546.49923,1.96511141 553.83378,2.27980047 C561.168329,2.59448954 566.902807,8.71990736 566.733796,16.0592593 L566.733796,16.0592593 Z" id="Path" fill="#A8577E" fill-rule="nonzero"></path>
                <path d="M587.23287,58.2069444 C582.923611,64.2796296 559.433333,74.0777778 559.433333,74.0777778 C559.433333,74.0777778 560.937963,48.6736111 565.247222,42.6009259 C567.988398,38.5551683 572.704357,36.3096184 577.573021,36.7318758 C582.441686,37.1541331 586.700624,40.1780724 588.704335,44.6353521 C590.708045,49.0926318 590.142747,54.2852418 587.226852,58.2069444 L587.23287,58.2069444 Z" id="Path" fill="#A8577E" fill-rule="nonzero"></path>
                <path d="M583.242593,128.563426 C576.459722,131.626852 551.236111,128.232407 551.236111,128.232407 C551.236111,128.232407 565.361574,107.065278 572.144444,103.995833 C578.894862,101.100537 586.720749,104.141864 589.744608,110.835678 C592.768467,117.529493 589.877356,125.41211 583.242593,128.563426 L583.242593,128.563426 Z" id="Path" fill="#A8577E" fill-rule="nonzero"></path>
                <path d="M568.238426,181.11713 C562.069444,185.281944 536.635185,186.196759 536.635185,186.196759 C536.635185,186.196759 546.981019,162.947222 553.15,158.776389 C559.31494,154.771233 567.55209,156.443759 571.666755,162.536155 C575.78142,168.628551 574.256333,176.894269 568.238426,181.11713 Z" id="Path" fill="#FC6681" fill-rule="nonzero"></path>
                <path d="M531.098148,74.3305556 C536.20787,79.7472222 560.835648,86.175 560.835648,86.175 C560.835648,86.175 555.804167,61.2282407 550.694444,55.8175926 C545.549674,50.5728113 537.152701,50.4130598 531.812163,55.4583592 C526.471625,60.5036587 526.154102,68.896147 531.098148,74.3305556 L531.098148,74.3305556 Z" id="Path" fill="#A8577E" fill-rule="nonzero"></path>
                <path d="M514.330556,135.990278 C520.830556,139.601389 546.228704,138.397685 546.228704,138.397685 C546.228704,138.397685 533.993056,116.093056 527.487037,112.463889 C521.014611,109.045314 512.996841,111.415964 509.424162,117.80462 C505.851484,124.193275 508.029339,132.265546 514.330556,135.990278 L514.330556,135.990278 Z" id="Path" fill="#A8577E" fill-rule="nonzero"></path>
                <path d="M506.259722,198.17963 C512.049537,202.856019 537.309259,205.943519 537.309259,205.943519 C537.309259,205.943519 528.991667,181.869444 523.201852,177.211111 C517.401077,172.711679 509.066523,173.680677 504.452755,179.390933 C499.838986,185.101188 500.642239,193.453345 506.259722,198.17963 L506.259722,198.17963 Z" id="Path" fill="#FC6681" fill-rule="nonzero"></path>
                <path d="M485.556019,197.625926 C485.556019,197.625926 549.568981,143.98287 563.796759,116.92963 C578.024537,89.8763889 596.158333,66.5726852 596.158333,66.5726852" id="Path" stroke="#535461" stroke-width="1.2037037"></path>
                <path d="M587.7625,127.034722 L560.077315,120.7875 C560.077315,120.7875 566.601389,150.001389 587.7625,127.034722 Z" id="Path" fill="#F5BEC9" fill-rule="nonzero"></path>
                <path d="M545.428241,97.2009259 L561.365278,121.07037 C561.365278,121.07037 530.225463,123.333333 545.428241,97.2009259 Z" id="Path" fill="#F5BEC9" fill-rule="nonzero"></path>
                <path d="M598.656019,104.597685 L573.34213,100.156019 C573.34213,100.156019 589.249074,124.344444 598.656019,104.597685 Z" id="Path" fill="#F5BEC9" fill-rule="nonzero"></path>
                <path d="M561.220833,83.2740741 L573.715278,99.6083333 C573.715278,99.6083333 551.597222,101.690741 561.220833,83.2740741 Z" id="Path" fill="#F5BEC9" fill-rule="nonzero"></path>
                <path d="M586.438426,80.0180556 C586.438426,80.0180556 608.014815,81.0472222 610.5125,83.1055556 C613.010185,85.1638889 607.298611,97.237037 599.077315,95.2689815 C590.856019,93.3009259 586.438426,80.0180556 586.438426,80.0180556 Z" id="Path" fill="#F5BEC9" fill-rule="nonzero"></path>
                <path d="M577.819907,60.7527778 C577.819907,60.7527778 586.625,76.7981481 586.293981,79.849537 C585.962963,82.9009259 572.878704,86.3314815 570.230556,74.7638889 C567.582407,63.1962963 577.819907,60.7527778 577.819907,60.7527778 Z" id="Path" fill="#F5BEC9" fill-rule="nonzero"></path>
                <circle id="Oval" fill="#FFD037" fill-rule="nonzero" transform="translate(600.955270, 69.339892) rotate(-72.430000) translate(-600.955270, -69.339892) " cx="600.95527" cy="69.3398921" r="6.01851852"></circle>
                <circle id="Oval" fill="#FFD037" fill-rule="nonzero" transform="translate(591.537230, 63.201501) rotate(-72.430000) translate(-591.537230, -63.201501) " cx="591.53723" cy="63.2015015" r="6.01851852"></circle>
                <path d="M197.925,211.396296 C197.925,211.396296 223.80463,192.137037 191.30463,124.72963 C191.30463,124.72963 147.971296,71.1648148 191.30463,20.6092593 C191.30463,20.6092593 96.8138889,23.0166667 98.6194444,110.887037 C100.425,198.757407 145.864815,211.396296 145.864815,211.396296 L197.925,211.396296 Z" id="Path" fill="#7360B7" fill-rule="nonzero"></path>
                <path d="M173.75463,211.396296 C173.75463,211.396296 167.236574,165.053704 149.78287,136.766667 C146.335643,131.045571 143.856775,124.794512 142.446296,118.265741 C136.614352,92.6087963 144.931944,65.7782407 163.775926,47.4157407 L191.310648,20.5912037" id="Path" stroke="#535461" stroke-width="1.2037037"></path>
                <path d="M251.820833,56.6902778 C251.820833,56.6902778 257.76713,64.4662037 249.076389,76.2023148 C240.385648,87.9384259 233.223611,97.8689815 236.118519,105.163426 C236.118519,105.163426 249.226852,83.3643519 259.897685,83.0574074 C270.568519,82.750463 263.556944,69.7986111 251.820833,56.6902778 Z" id="Path" fill="#7360B7" fill-rule="nonzero"></path>
                <path d="M251.820833,56.6902778 C252.335313,57.4417692 252.740585,58.2624451 253.024537,59.1277778 C263.436574,71.3574074 268.97963,82.774537 258.976852,83.0634259 C249.654167,83.3282407 238.471759,99.999537 235.793519,104.206481 C235.881928,104.531158 235.988421,104.850639 236.1125,105.163426 C236.1125,105.163426 249.220833,83.3643519 259.891667,83.0574074 C270.5625,82.750463 263.556944,69.7986111 251.820833,56.6902778 Z" id="Path" fill="#000000" fill-rule="nonzero" opacity="0.1"></path>
                <path d="M262.870833,66.5967593 C262.870833,69.3351852 262.563889,71.55 262.184722,71.55 C261.805556,71.55 261.498611,69.3291667 261.498611,66.5967593 C261.498611,63.8643519 261.883796,65.1462963 262.262963,65.1462963 C262.64213,65.1462963 262.870833,63.8643519 262.870833,66.5967593 Z" id="Path" fill="#FFD037" fill-rule="nonzero"></path>
                <path d="M266.6625,69.8648148 C264.255093,71.1768519 262.166667,71.9652778 261.986111,71.6342593 C261.805556,71.3032407 263.605093,69.9731481 266.006481,68.6611111 C268.40787,67.3490741 267.462963,68.3060185 267.643519,68.6611111 C267.824074,69.0162037 269.063889,68.5527778 266.6625,69.8648148 Z" id="Path" fill="#FFD037" fill-rule="nonzero"></path>
                <path d="M220.428241,56.6902778 C220.428241,56.6902778 214.481944,64.4662037 223.172685,76.2023148 C231.863426,87.9384259 239.025463,97.8689815 236.130556,105.163426 C236.130556,105.163426 223.022222,83.3643519 212.351389,83.0574074 C201.680556,82.750463 208.680093,69.7986111 220.428241,56.6902778 Z" id="Path" fill="#7360B7" fill-rule="nonzero"></path>
                <path d="M220.428241,56.6902778 C219.913761,57.4417692 219.508489,58.2624451 219.224537,59.1277778 C208.8125,71.3574074 203.269444,82.774537 213.272222,83.0634259 C222.594907,83.3282407 233.777315,99.999537 236.455556,104.206481 C236.367146,104.531158 236.260653,104.850639 236.136574,105.163426 C236.136574,105.163426 223.010185,83.3583333 212.339352,83.0634259 C201.668519,82.7685185 208.680093,69.7986111 220.428241,56.6902778 Z" id="Path" fill="#000000" fill-rule="nonzero" opacity="0.1"></path>
                <path d="M209.366204,66.5967593 C209.366204,69.3351852 209.673148,71.55 210.052315,71.55 C210.431481,71.55 210.738426,69.3291667 210.738426,66.5967593 C210.738426,63.8643519 210.353241,65.1462963 209.974074,65.1462963 C209.594907,65.1462963 209.366204,63.8643519 209.366204,66.5967593 Z" id="Path" fill="#FFD037" fill-rule="nonzero"></path>
                <path d="M205.574537,69.8648148 C207.981944,71.1768519 210.07037,71.9652778 210.250926,71.6342593 C210.431481,71.3032407 208.631944,69.9731481 206.230556,68.6611111 C203.829167,67.3490741 204.774074,68.3060185 204.593519,68.6611111 C204.412963,69.0162037 203.173148,68.5527778 205.574537,69.8648148 Z" id="Path" fill="#FFD037" fill-rule="nonzero"></path>
                <path d="M649.097222,390.669907 L596.368981,158.668056 L576.778704,158.668056 C575.996296,149.802778 575.472685,141.214352 575.274074,133.125463 C575.274074,133.125463 504.255556,148.665278 447.621296,103.706944 C390.987037,58.7486111 324.404167,107.594907 324.404167,107.594907 L324.14537,107.408333 L324.14537,107.318056 L324.14537,107.432407 C319.523148,104.158333 255.738889,60.4458333 201.205093,103.743056 C144.594907,148.701389 73.5523148,133.161574 73.5523148,133.161574 C73.3537037,141.352778 72.8240741,150.013426 72.0236111,158.962963 L53.8476852,158.962963 L0,391.506481 C0,391.506481 218.893519,399.703704 295.599537,392.144444 C298.35,397.958333 310.206481,402.327778 324.410185,402.327778 C340.371296,402.327778 353.353241,396.808796 353.80463,389.92963 C413.514352,394.473611 541.997685,401.737963 649.097222,390.669907 Z" id="Path" fill="url(#linearGradient-1)" fill-rule="nonzero"></path>
                <path d="M59.487037,160.708333 L6.77083333,388.412963 C6.77083333,388.412963 296.965741,399.282407 320.335648,384.067593 C320.335648,384.067593 500.487963,402.273611 642.326389,387.600463 L590.699537,160.443519 L59.487037,160.708333 Z" id="Path" fill="#313784" fill-rule="nonzero"></path>
                <path d="M77.4222222,168.574537 L28.275,380.865741 C28.275,380.865741 298.831481,391.000926 320.618519,376.815278 C320.618519,376.815278 488.577315,393.7875 620.816204,380.107407 L572.668056,168.321759 L77.4222222,168.574537 Z" id="Path" fill="#000000" fill-rule="nonzero" opacity="0.1"></path>
                <path d="M570.05,135.442593 C570.05,135.442593 500.487963,150.657407 445.057407,106.637963 C389.626852,62.6185185 324.410185,110.441667 324.410185,110.441667 C324.410185,110.441667 259.199537,62.6185185 203.768981,106.637963 C148.338426,150.657407 78.7763889,135.442593 78.7763889,135.442593 C76.5856481,224.023148 35.3046296,367.492593 35.3046296,367.492593 C35.3046296,367.492593 111.384722,388.14213 211.924074,346.301389 C312.463426,304.460648 324.416204,360.974537 324.416204,360.974537 C324.416204,360.974537 336.368981,304.45463 436.908333,346.301389 C537.447685,388.148148 613.527778,367.492593 613.527778,367.492593 C613.527778,367.492593 572.222685,224.023148 570.05,135.442593 Z" id="Path" fill="#F1F2FB" fill-rule="nonzero"></path>
                <path d="M190.185185,362.617593 C190.185185,362.617593 282.027778,341.968056 324.398148,372.397685 C324.398148,372.397685 365.155556,335.443981 459.7125,364.248611" id="Path" fill="#000000" fill-rule="nonzero" opacity="0.1"></path>
                <ellipse id="Oval" fill="#E8EAF8" fill-rule="nonzero" cx="324.410185" cy="386.511111" rx="28.8046296" ry="12.500463"></ellipse>
                <path d="M324.139352,110.170833 C324.139352,110.170833 344.788889,215.055556 324.681019,362.87037" id="Path" fill="#000000" fill-rule="nonzero" opacity="0.1"></path>
                <path d="M98.6736111,168.321759 C98.6736111,168.321759 141.928704,178.372685 179.369907,168.321759 C216.811111,158.270833 285.55463,125.391667 308.166204,168.321759" id="Path" stroke="#000000" stroke-width="2.40740741" opacity="0.1"></path>
                <path d="M98.6736111,186.798611 C98.6736111,186.798611 141.928704,196.849537 179.369907,186.798611 C216.811111,176.747685 297.880556,177.289352 308.166204,186.798611" id="Path" stroke="#000000" stroke-width="2.40740741" opacity="0.1"></path>
                <path d="M98.6736111,219.376852 C98.6736111,219.376852 141.928704,229.427778 179.369907,219.376852 C216.811111,209.325926 265.160158,195.301807 308.166204,219.376852" id="Path" stroke="#000000" stroke-width="2.40740741" opacity="0.1"></path>
                <path d="M98.6736111,237.877778 C98.6736111,237.877778 141.928704,247.928704 179.369907,237.877778 C216.811111,227.826852 297.880556,228.368519 308.166204,237.877778" id="Path" stroke="#000000" stroke-width="2.40740741" opacity="0.1"></path>
                <path d="M550.152778,168.321759 C550.152778,168.321759 506.897685,178.372685 469.456481,168.321759 C432.015278,158.270833 363.271759,125.391667 340.660185,168.321759" id="Path" stroke="#000000" stroke-width="2.40740741" opacity="0.1"></path>
                <path d="M550.152778,186.798611 C550.152778,186.798611 506.897685,196.849537 469.456481,186.798611 C432.015278,176.747685 350.945833,177.289352 340.660185,186.798611" id="Path" stroke="#000000" stroke-width="2.40740741" opacity="0.1"></path>
                <path d="M550.152778,219.376852 C550.152778,219.376852 506.897685,229.427778 469.456481,219.376852 C432.015278,209.325926 379.670729,197.625926 340.660185,219.376852" id="Path" stroke="#000000" stroke-width="2.40740741" opacity="0.1"></path>
                <path d="M550.152778,237.877778 C550.152778,237.877778 506.897685,247.928704 469.456481,237.877778 C432.015278,227.826852 350.945833,228.368519 340.660185,237.877778" id="Path" stroke="#000000" stroke-width="2.40740741" opacity="0.1"></path>
                <path d="M551.031481,433.509722 C552.837037,432.131481 554.552315,430.500463 555.075926,428.532407 C555.632897,426.361285 554.392384,424.134182 552.253241,423.464815 C549.659259,422.658333 546.890741,424.120833 544.784259,425.601389 C542.677778,427.081944 540.276389,428.773148 537.525926,428.460185 C540.372685,426.401852 541.738889,423.043519 540.944444,420.034259 C540.810553,419.378629 540.478627,418.779902 539.993519,418.318981 C538.555093,417.061111 535.943056,417.602778 534.221759,418.589815 C528.738889,421.7375 527.210185,427.810185 527.180093,433.281019 C526.626389,431.306944 527.095833,429.25463 527.077778,427.226389 C527.059722,425.198148 526.385648,422.959259 524.291204,421.869907 C522.951473,421.291058 521.500908,421.013683 520.04213,421.057407 C517.580556,420.985185 514.830093,421.183796 513.150926,422.658333 C511.0625,424.463889 511.604167,427.551389 513.421759,429.561574 C515.239352,431.571759 518.00787,432.835648 520.553704,434.225926 C522.497685,435.285185 524.459722,436.518981 525.651389,438.19213 C525.803853,438.413985 525.931032,438.652194 526.030556,438.902315 L541.480093,438.902315 C544.87446,437.506312 548.082713,435.694973 551.031481,433.509722 Z" id="Path" fill="#7360B7" fill-rule="nonzero"></path>
            </g>
        </g>
    </g>
</svg>