<?xml version="1.0" encoding="UTF-8"?>
<svg width="650px" height="650px" viewBox="0 0 650 650" version="1.1" xmlns="http://www.w3.org/2000/svg" xmlns:xlink="http://www.w3.org/1999/xlink">
    <title>e-books</title>
    <defs>
        <linearGradient x1="50%" y1="99.9981053%" x2="50%" y2="0.00457553381%" id="linearGradient-1">
            <stop stop-color="#808080" stop-opacity="0.25" offset="0%"></stop>
            <stop stop-color="#808080" stop-opacity="0.12" offset="54%"></stop>
            <stop stop-color="#808080" stop-opacity="0.1" offset="100%"></stop>
        </linearGradient>
    </defs>
    <g id="e-books" stroke="none" stroke-width="1" fill="none" fill-rule="evenodd">
        <g id="Group-3" transform="translate(0.000000, 6.000000)">
            <g id="undraw_Bibliophile_hwqc" transform="translate(0.000000, 83.055556)">
                <path d="M560.281944,269.425 C539.758796,302.990278 543.387963,348.580556 552.181019,384.529167 C555.124074,396.566204 558.524537,409.259259 555.906481,422.746759 C552.70463,439.2375 541.233333,452.2375 529.647685,459.676389 C508.522685,473.248148 484.472685,472.971296 467.055093,458.960185 C451.978704,446.850926 442.108333,425.665741 426.731019,414.2125 C400.965741,395.043519 365.480556,406.881944 334.611574,425.045833 C312.77037,437.889352 288.732407,454.14537 268.648611,445.0875 C254.51713,438.713889 245.778241,420.598148 241.727778,400.857407 C239.777778,391.330093 238.622222,380.918056 234.090278,373.665741 C231.393981,369.356481 227.674537,366.47963 223.816667,364.126389 C188.602315,342.658333 140.761111,360.936574 106.822685,336.603704 C83.8981481,320.16713 70.9643519,286.084259 66.8296296,249.593981 C62.6949074,213.103704 66.3541667,174.013426 70.9162037,135.525 C74.1782407,108.176852 78.5597222,78.8907407 92.7875,56.5921296 C107.833796,33.0055556 131.450463,22.4009259 151.925463,24.5134259 C172.400463,26.6259259 190.131019,39.7643519 205.393981,55.8097222 C224.472685,75.8634259 241.6375,101.508333 266.409722,107.893981 C283.261574,112.24537 301.750463,107.04537 319.703704,104.072222 C349.718056,99.1009259 379.287037,100.364815 408.633333,102.056019 C436.733796,103.675 465.008796,105.733333 491.159259,115.675926 C509.666204,122.711574 523.827778,137.462963 541.08287,147.02037 C552.331481,153.249537 565.048611,153.989815 575.520833,162.319444 C588.418519,172.550926 599.534722,191.569444 594.250463,215.649537 C589.225,238.55 571.169444,251.616204 560.281944,269.425 Z" id="Path" fill="#AA7DCE" fill-rule="nonzero" opacity="0.1"></path>
                <path d="M177.125,166.893519 C177.125,166.893519 88.5685185,147.092593 201.247222,31.2421296 C201.247222,31.2421296 249.816667,77.2777778 232.001852,134.501852 C224.839815,157.510648 201.788889,171.714352 178.437037,167.164352 L177.125,166.893519 Z" id="Path" fill="#AA7DCE" fill-rule="nonzero"></path>
                <path d="M177.125,166.893519 C175.181019,166.460185 90.4583333,145.136574 201.247222,31.2421296 C201.247222,31.2421296 249.816667,77.2777778 232.001852,134.501852 C224.839815,157.510648 201.788889,171.714352 178.437037,167.164352 L177.125,166.893519 Z" id="Path" fill="#FFFFFF" fill-rule="nonzero" opacity="0.0999395461"></path>
                <path d="M178.298611,167.555556 C178.298611,167.555556 225.074537,97.0907407 201.259259,31.2481481" id="Path" stroke="#535461" stroke-width="0.601851852"></path>
                <path d="M541.431944,235.318056 C541.431944,235.318056 526.168981,173.862963 549.298148,130.108333 C559.012037,111.745833 562.869907,90.825463 559.625926,70.3083333 C558.068708,60.5758519 555.62299,51.0065272 552.319444,41.7203704" id="Path" stroke="#535461" stroke-width="1.2037037"></path>
                <path d="M566.733796,14.0592593 C566.414815,21.4981481 552.024537,42.4847222 552.024537,42.4847222 C552.024537,42.4847222 539.481944,20.3425926 539.800926,12.9037037 C540.26117,5.57684718 546.49923,-0.0348885915 553.83378,0.279800475 C561.168329,0.594489541 566.902807,6.71990736 566.733796,14.0592593 L566.733796,14.0592593 Z" id="Path" fill="#AA7DCE" fill-rule="nonzero"></path>
                <path d="M587.23287,56.2069444 C582.923611,62.2796296 559.433333,72.0777778 559.433333,72.0777778 C559.433333,72.0777778 560.937963,46.6736111 565.247222,40.6009259 C567.988398,36.5551683 572.704357,34.3096184 577.573021,34.7318758 C582.441686,35.1541331 586.700624,38.1780724 588.704335,42.6353521 C590.708045,47.0926318 590.142747,52.2852418 587.226852,56.2069444 L587.23287,56.2069444 Z" id="Path" fill="#AA7DCE" fill-rule="nonzero"></path>
                <path d="M583.242593,126.563426 C576.459722,129.626852 551.236111,126.232407 551.236111,126.232407 C551.236111,126.232407 565.361574,105.065278 572.144444,101.995833 C578.894862,99.100537 586.720749,102.141864 589.744608,108.835678 C592.768467,115.529493 589.877356,123.41211 583.242593,126.563426 L583.242593,126.563426 Z" id="Path" fill="#AA7DCE" fill-rule="nonzero"></path>
                <path d="M568.238426,179.11713 C562.069444,183.281944 536.635185,184.196759 536.635185,184.196759 C536.635185,184.196759 546.981019,160.947222 553.15,156.776389 C559.31494,152.771233 567.55209,154.443759 571.666755,160.536155 C575.78142,166.628551 574.256333,174.894269 568.238426,179.11713 Z" id="Path" fill="#AA7DCE" fill-rule="nonzero"></path>
                <path d="M531.098148,72.3305556 C536.20787,77.7472222 560.835648,84.175 560.835648,84.175 C560.835648,84.175 555.804167,59.2282407 550.694444,53.8175926 C545.549674,48.5728113 537.152701,48.4130598 531.812163,53.4583592 C526.471625,58.5036587 526.154102,66.896147 531.098148,72.3305556 L531.098148,72.3305556 Z" id="Path" fill="#AA7DCE" fill-rule="nonzero"></path>
                <path d="M514.330556,133.990278 C520.830556,137.601389 546.228704,136.397685 546.228704,136.397685 C546.228704,136.397685 533.993056,114.093056 527.487037,110.463889 C521.014611,107.045314 512.996841,109.415964 509.424162,115.80462 C505.851484,122.193275 508.029339,130.265546 514.330556,133.990278 L514.330556,133.990278 Z" id="Path" fill="#AA7DCE" fill-rule="nonzero"></path>
                <path d="M506.259722,196.17963 C512.049537,200.856019 537.309259,203.943519 537.309259,203.943519 C537.309259,203.943519 528.991667,179.869444 523.201852,175.211111 C517.401077,170.711679 509.066523,171.680677 504.452755,177.390933 C499.838986,183.101188 500.642239,191.453345 506.259722,196.17963 L506.259722,196.17963 Z" id="Path" fill="#AA7DCE" fill-rule="nonzero"></path>
                <path d="M566.733796,14.0592593 C566.414815,21.4981481 552.024537,42.4847222 552.024537,42.4847222 C552.024537,42.4847222 539.481944,20.3425926 539.800926,12.9037037 C540.26117,5.57684718 546.49923,-0.0348885915 553.83378,0.279800475 C561.168329,0.594489541 566.902807,6.71990736 566.733796,14.0592593 L566.733796,14.0592593 Z" id="Path" fill="#A8577E" fill-rule="nonzero"></path>
                <path d="M587.23287,56.2069444 C582.923611,62.2796296 559.433333,72.0777778 559.433333,72.0777778 C559.433333,72.0777778 560.937963,46.6736111 565.247222,40.6009259 C567.988398,36.5551683 572.704357,34.3096184 577.573021,34.7318758 C582.441686,35.1541331 586.700624,38.1780724 588.704335,42.6353521 C590.708045,47.0926318 590.142747,52.2852418 587.226852,56.2069444 L587.23287,56.2069444 Z" id="Path" fill="#A8577E" fill-rule="nonzero"></path>
                <path d="M583.242593,126.563426 C576.459722,129.626852 551.236111,126.232407 551.236111,126.232407 C551.236111,126.232407 565.361574,105.065278 572.144444,101.995833 C578.894862,99.100537 586.720749,102.141864 589.744608,108.835678 C592.768467,115.529493 589.877356,123.41211 583.242593,126.563426 L583.242593,126.563426 Z" id="Path" fill="#A8577E" fill-rule="nonzero"></path>
                <path d="M568.238426,179.11713 C562.069444,183.281944 536.635185,184.196759 536.635185,184.196759 C536.635185,184.196759 546.981019,160.947222 553.15,156.776389 C559.31494,152.771233 567.55209,154.443759 571.666755,160.536155 C575.78142,166.628551 574.256333,174.894269 568.238426,179.11713 Z" id="Path" fill="#FC6681" fill-rule="nonzero"></path>
                <path d="M531.098148,72.3305556 C536.20787,77.7472222 560.835648,84.175 560.835648,84.175 C560.835648,84.175 555.804167,59.2282407 550.694444,53.8175926 C545.549674,48.5728113 537.152701,48.4130598 531.812163,53.4583592 C526.471625,58.5036587 526.154102,66.896147 531.098148,72.3305556 L531.098148,72.3305556 Z" id="Path" fill="#A8577E" fill-rule="nonzero"></path>
                <path d="M514.330556,133.990278 C520.830556,137.601389 546.228704,136.397685 546.228704,136.397685 C546.228704,136.397685 533.993056,114.093056 527.487037,110.463889 C521.014611,107.045314 512.996841,109.415964 509.424162,115.80462 C505.851484,122.193275 508.029339,130.265546 514.330556,133.990278 L514.330556,133.990278 Z" id="Path" fill="#A8577E" fill-rule="nonzero"></path>
                <path d="M506.259722,196.17963 C512.049537,200.856019 537.309259,203.943519 537.309259,203.943519 C537.309259,203.943519 528.991667,179.869444 523.201852,175.211111 C517.401077,170.711679 509.066523,171.680677 504.452755,177.390933 C499.838986,183.101188 500.642239,191.453345 506.259722,196.17963 L506.259722,196.17963 Z" id="Path" fill="#FC6681" fill-rule="nonzero"></path>
                <path d="M485.556019,195.625926 C485.556019,195.625926 549.568981,141.98287 563.796759,114.92963 C578.024537,87.8763889 596.158333,64.5726852 596.158333,64.5726852" id="Path" stroke="#535461" stroke-width="1.2037037"></path>
                <path d="M587.7625,125.034722 L560.077315,118.7875 C560.077315,118.7875 566.601389,148.001389 587.7625,125.034722 Z" id="Path" fill="#F5BEC9" fill-rule="nonzero"></path>
                <path d="M545.428241,95.2009259 L561.365278,119.07037 C561.365278,119.07037 530.225463,121.333333 545.428241,95.2009259 Z" id="Path" fill="#F5BEC9" fill-rule="nonzero"></path>
                <path d="M598.656019,102.597685 L573.34213,98.1560185 C573.34213,98.1560185 589.249074,122.344444 598.656019,102.597685 Z" id="Path" fill="#F5BEC9" fill-rule="nonzero"></path>
                <path d="M561.220833,81.2740741 L573.715278,97.6083333 C573.715278,97.6083333 551.597222,99.6907407 561.220833,81.2740741 Z" id="Path" fill="#F5BEC9" fill-rule="nonzero"></path>
                <path d="M586.438426,78.0180556 C586.438426,78.0180556 608.014815,79.0472222 610.5125,81.1055556 C613.010185,83.1638889 607.298611,95.237037 599.077315,93.2689815 C590.856019,91.3009259 586.438426,78.0180556 586.438426,78.0180556 Z" id="Path" fill="#F5BEC9" fill-rule="nonzero"></path>
                <path d="M577.819907,58.7527778 C577.819907,58.7527778 586.625,74.7981481 586.293981,77.849537 C585.962963,80.9009259 572.878704,84.3314815 570.230556,72.7638889 C567.582407,61.1962963 577.819907,58.7527778 577.819907,58.7527778 Z" id="Path" fill="#F5BEC9" fill-rule="nonzero"></path>
                <circle id="Oval" fill="#FFD037" fill-rule="nonzero" transform="translate(600.955270, 67.339892) rotate(-72.430000) translate(-600.955270, -67.339892) " cx="600.95527" cy="67.3398921" r="6.01851852"></circle>
                <circle id="Oval" fill="#FFD037" fill-rule="nonzero" transform="translate(591.537230, 61.201501) rotate(-72.430000) translate(-591.537230, -61.201501) " cx="591.53723" cy="61.2015015" r="6.01851852"></circle>
                <path d="M197.925,209.396296 C197.925,209.396296 223.80463,190.137037 191.30463,122.72963 C191.30463,122.72963 147.971296,69.1648148 191.30463,18.6092593 C191.30463,18.6092593 96.8138889,21.0166667 98.6194444,108.887037 C100.425,196.757407 145.864815,209.396296 145.864815,209.396296 L197.925,209.396296 Z" id="Path" fill="#7360B7" fill-rule="nonzero"></path>
                <path d="M173.75463,209.396296 C173.75463,209.396296 167.236574,163.053704 149.78287,134.766667 C146.335643,129.045571 143.856775,122.794512 142.446296,116.265741 C136.614352,90.6087963 144.931944,63.7782407 163.775926,45.4157407 L191.310648,18.5912037" id="Path" stroke="#535461" stroke-width="1.2037037"></path>
                <path d="M251.820833,54.6902778 C251.820833,54.6902778 257.76713,62.4662037 249.076389,74.2023148 C240.385648,85.9384259 233.223611,95.8689815 236.118519,103.163426 C236.118519,103.163426 249.226852,81.3643519 259.897685,81.0574074 C270.568519,80.750463 263.556944,67.7986111 251.820833,54.6902778 Z" id="Path" fill="#7360B7" fill-rule="nonzero"></path>
                <path d="M251.820833,54.6902778 C252.335313,55.4417692 252.740585,56.2624451 253.024537,57.1277778 C263.436574,69.3574074 268.97963,80.774537 258.976852,81.0634259 C249.654167,81.3282407 238.471759,97.999537 235.793519,102.206481 C235.881928,102.531158 235.988421,102.850639 236.1125,103.163426 C236.1125,103.163426 249.220833,81.3643519 259.891667,81.0574074 C270.5625,80.750463 263.556944,67.7986111 251.820833,54.6902778 Z" id="Path" fill="#000000" fill-rule="nonzero" opacity="0.1"></path>
                <path d="M262.870833,64.5967593 C262.870833,67.3351852 262.563889,69.55 262.184722,69.55 C261.805556,69.55 261.498611,67.3291667 261.498611,64.5967593 C261.498611,61.8643519 261.883796,63.1462963 262.262963,63.1462963 C262.64213,63.1462963 262.870833,61.8643519 262.870833,64.5967593 Z" id="Path" fill="#FFD037" fill-rule="nonzero"></path>
                <path d="M266.6625,67.8648148 C264.255093,69.1768519 262.166667,69.9652778 261.986111,69.6342593 C261.805556,69.3032407 263.605093,67.9731481 266.006481,66.6611111 C268.40787,65.3490741 267.462963,66.3060185 267.643519,66.6611111 C267.824074,67.0162037 269.063889,66.5527778 266.6625,67.8648148 Z" id="Path" fill="#FFD037" fill-rule="nonzero"></path>
                <path d="M220.428241,54.6902778 C220.428241,54.6902778 214.481944,62.4662037 223.172685,74.2023148 C231.863426,85.9384259 239.025463,95.8689815 236.130556,103.163426 C236.130556,103.163426 223.022222,81.3643519 212.351389,81.0574074 C201.680556,80.750463 208.680093,67.7986111 220.428241,54.6902778 Z" id="Path" fill="#7360B7" fill-rule="nonzero"></path>
                <path d="M220.428241,54.6902778 C219.913761,55.4417692 219.508489,56.2624451 219.224537,57.1277778 C208.8125,69.3574074 203.269444,80.774537 213.272222,81.0634259 C222.594907,81.3282407 233.777315,97.999537 236.455556,102.206481 C236.367146,102.531158 236.260653,102.850639 236.136574,103.163426 C236.136574,103.163426 223.010185,81.3583333 212.339352,81.0634259 C201.668519,80.7685185 208.680093,67.7986111 220.428241,54.6902778 Z" id="Path" fill="#000000" fill-rule="nonzero" opacity="0.1"></path>
                <path d="M209.366204,64.5967593 C209.366204,67.3351852 209.673148,69.55 210.052315,69.55 C210.431481,69.55 210.738426,67.3291667 210.738426,64.5967593 C210.738426,61.8643519 210.353241,63.1462963 209.974074,63.1462963 C209.594907,63.1462963 209.366204,61.8643519 209.366204,64.5967593 Z" id="Path" fill="#FFD037" fill-rule="nonzero"></path>
                <path d="M205.574537,67.8648148 C207.981944,69.1768519 210.07037,69.9652778 210.250926,69.6342593 C210.431481,69.3032407 208.631944,67.9731481 206.230556,66.6611111 C203.829167,65.3490741 204.774074,66.3060185 204.593519,66.6611111 C204.412963,67.0162037 203.173148,66.5527778 205.574537,67.8648148 Z" id="Path" fill="#FFD037" fill-rule="nonzero"></path>
                <path d="M649.097222,388.669907 L596.368981,156.668056 L576.778704,156.668056 C575.996296,147.802778 575.472685,139.214352 575.274074,131.125463 C575.274074,131.125463 504.255556,146.665278 447.621296,101.706944 C390.987037,56.7486111 324.404167,105.594907 324.404167,105.594907 L324.14537,105.408333 L324.14537,105.318056 L324.14537,105.432407 C319.523148,102.158333 255.738889,58.4458333 201.205093,101.743056 C144.594907,146.701389 73.5523148,131.161574 73.5523148,131.161574 C73.3537037,139.352778 72.8240741,148.013426 72.0236111,156.962963 L53.8476852,156.962963 L0,389.506481 C0,389.506481 218.893519,397.703704 295.599537,390.144444 C298.35,395.958333 310.206481,400.327778 324.410185,400.327778 C340.371296,400.327778 353.353241,394.808796 353.80463,387.92963 C413.514352,392.473611 541.997685,399.737963 649.097222,388.669907 Z" id="Path" fill="url(#linearGradient-1)" fill-rule="nonzero"></path>
                <path d="M59.487037,158.708333 L6.77083333,386.412963 C6.77083333,386.412963 296.965741,397.282407 320.335648,382.067593 C320.335648,382.067593 500.487963,400.273611 642.326389,385.600463 L590.699537,158.443519 L59.487037,158.708333 Z" id="Path" fill="#313784" fill-rule="nonzero"></path>
                <path d="M77.4222222,166.574537 L28.275,378.865741 C28.275,378.865741 298.831481,389.000926 320.618519,374.815278 C320.618519,374.815278 488.577315,391.7875 620.816204,378.107407 L572.668056,166.321759 L77.4222222,166.574537 Z" id="Path" fill="#000000" fill-rule="nonzero" opacity="0.1"></path>
                <path d="M570.05,133.442593 C570.05,133.442593 500.487963,148.657407 445.057407,104.637963 C389.626852,60.6185185 324.410185,108.441667 324.410185,108.441667 C324.410185,108.441667 259.199537,60.6185185 203.768981,104.637963 C148.338426,148.657407 78.7763889,133.442593 78.7763889,133.442593 C76.5856481,222.023148 35.3046296,365.492593 35.3046296,365.492593 C35.3046296,365.492593 111.384722,386.14213 211.924074,344.301389 C312.463426,302.460648 324.416204,358.974537 324.416204,358.974537 C324.416204,358.974537 336.368981,302.45463 436.908333,344.301389 C537.447685,386.148148 613.527778,365.492593 613.527778,365.492593 C613.527778,365.492593 572.222685,222.023148 570.05,133.442593 Z" id="Path" fill="#F1F2FB" fill-rule="nonzero"></path>
                <path d="M190.185185,360.617593 C190.185185,360.617593 282.027778,339.968056 324.398148,370.397685 C324.398148,370.397685 365.155556,333.443981 459.7125,362.248611" id="Path" fill="#000000" fill-rule="nonzero" opacity="0.1"></path>
                <ellipse id="Oval" fill="#E8EAF8" fill-rule="nonzero" cx="324.410185" cy="384.511111" rx="28.8046296" ry="12.500463"></ellipse>
                <path d="M324.139352,108.170833 C324.139352,108.170833 344.788889,213.055556 324.681019,360.87037" id="Path" fill="#000000" fill-rule="nonzero" opacity="0.1"></path>
                <path d="M98.6736111,166.321759 C98.6736111,166.321759 141.928704,176.372685 179.369907,166.321759 C216.811111,156.270833 285.55463,123.391667 308.166204,166.321759" id="Path" stroke="#000000" stroke-width="2.40740741" opacity="0.1"></path>
                <path d="M98.6736111,184.798611 C98.6736111,184.798611 141.928704,194.849537 179.369907,184.798611 C216.811111,174.747685 297.880556,175.289352 308.166204,184.798611" id="Path" stroke="#000000" stroke-width="2.40740741" opacity="0.1"></path>
                <path d="M98.6736111,217.376852 C98.6736111,217.376852 141.928704,227.427778 179.369907,217.376852 C216.811111,207.325926 265.160158,193.301807 308.166204,217.376852" id="Path" stroke="#000000" stroke-width="2.40740741" opacity="0.1"></path>
                <path d="M98.6736111,235.877778 C98.6736111,235.877778 141.928704,245.928704 179.369907,235.877778 C216.811111,225.826852 297.880556,226.368519 308.166204,235.877778" id="Path" stroke="#000000" stroke-width="2.40740741" opacity="0.1"></path>
                <path d="M550.152778,166.321759 C550.152778,166.321759 506.897685,176.372685 469.456481,166.321759 C432.015278,156.270833 363.271759,123.391667 340.660185,166.321759" id="Path" stroke="#000000" stroke-width="2.40740741" opacity="0.1"></path>
                <path d="M550.152778,184.798611 C550.152778,184.798611 506.897685,194.849537 469.456481,184.798611 C432.015278,174.747685 350.945833,175.289352 340.660185,184.798611" id="Path" stroke="#000000" stroke-width="2.40740741" opacity="0.1"></path>
                <path d="M550.152778,217.376852 C550.152778,217.376852 506.897685,227.427778 469.456481,217.376852 C432.015278,207.325926 379.670729,195.625926 340.660185,217.376852" id="Path" stroke="#000000" stroke-width="2.40740741" opacity="0.1"></path>
                <path d="M550.152778,235.877778 C550.152778,235.877778 506.897685,245.928704 469.456481,235.877778 C432.015278,225.826852 350.945833,226.368519 340.660185,235.877778" id="Path" stroke="#000000" stroke-width="2.40740741" opacity="0.1"></path>
                <path d="M551.031481,431.509722 C552.837037,430.131481 554.552315,428.500463 555.075926,426.532407 C555.632897,424.361285 554.392384,422.134182 552.253241,421.464815 C549.659259,420.658333 546.890741,422.120833 544.784259,423.601389 C542.677778,425.081944 540.276389,426.773148 537.525926,426.460185 C540.372685,424.401852 541.738889,421.043519 540.944444,418.034259 C540.810553,417.378629 540.478627,416.779902 539.993519,416.318981 C538.555093,415.061111 535.943056,415.602778 534.221759,416.589815 C528.738889,419.7375 527.210185,425.810185 527.180093,431.281019 C526.626389,429.306944 527.095833,427.25463 527.077778,425.226389 C527.059722,423.198148 526.385648,420.959259 524.291204,419.869907 C522.951473,419.291058 521.500908,419.013683 520.04213,419.057407 C517.580556,418.985185 514.830093,419.183796 513.150926,420.658333 C511.0625,422.463889 511.604167,425.551389 513.421759,427.561574 C515.239352,429.571759 518.00787,430.835648 520.553704,432.225926 C522.497685,433.285185 524.459722,434.518981 525.651389,436.19213 C525.803853,436.413985 525.931032,436.652194 526.030556,436.902315 L541.480093,436.902315 C544.87446,435.506312 548.082713,433.694973 551.031481,431.509722 Z" id="Path" fill="#7360B7" fill-rule="nonzero"></path>
            </g>
            <circle id="Oval" fill="#F5BEC9" cx="604.861111" cy="42.7314815" r="5.41666667"></circle>
            <circle id="Oval-Copy-4" fill="#F5D7E3" cx="230.509259" cy="5.41666667" r="5.41666667"></circle>
            <path d="M310.632357,84.9535606 C308.946776,84.2200002 308.080202,82.3381917 308.618561,80.580505 C308.659786,80.449174 308.685242,80.3134054 308.694394,80.1760606 L308.694394,80.1760606 C308.749249,79.3740409 308.269002,78.6317997 307.514941,78.3531672 C306.760879,78.0745347 305.913388,78.3261647 305.433561,78.9711532 L305.433561,78.9711532 C305.352489,79.0807649 305.284614,79.1995466 305.231338,79.3250421 C304.497778,81.0106226 302.615969,81.8771973 300.858283,81.3388384 C300.726952,81.2976132 300.591183,81.2721566 300.453838,81.263005 L300.453838,81.263005 C299.651819,81.20815 298.909577,81.6883968 298.630945,82.4424582 C298.352312,83.1965196 298.603942,84.0440108 299.248931,84.5238384 L299.248931,84.5238384 C299.358543,84.6049101 299.477324,84.6727854 299.60282,84.7260606 C301.2884,85.459621 302.154975,87.3414295 301.616616,89.0991162 C301.575391,89.2304472 301.549934,89.3662158 301.540783,89.5035606 L301.540783,89.5035606 C301.485928,90.3055803 301.966175,91.0478215 302.720236,91.326454 C303.474297,91.6050865 304.321789,91.3534565 304.801616,90.708468 L304.801616,90.708468 C304.882688,90.5988563 304.950563,90.4800746 305.003838,90.3545791 C305.737399,88.6689985 307.619207,87.8024239 309.376894,88.3407828 C309.508225,88.382008 309.643994,88.4074646 309.781338,88.4166162 L309.781338,88.4166162 C310.583358,88.4714712 311.325599,87.9912244 311.604232,87.237163 C311.882864,86.4831016 311.631234,85.6356104 310.986246,85.1557828 L310.986246,85.1557828 C310.876634,85.0747111 310.757852,85.0068358 310.632357,84.9535606 L310.632357,84.9535606 Z" id="Path" fill="#A8577E" fill-rule="nonzero"></path>
            <circle id="Oval-Copy-6" fill="#F4A5AE" cx="72.8240741" cy="54.7685185" r="5.41666667"></circle>
            <path d="M520.076801,59.6757828 C518.391221,58.9422225 517.524646,57.0604139 518.063005,55.3027273 C518.10423,55.1713963 518.129687,55.0356276 518.138838,54.8982828 L518.138838,54.8982828 C518.193693,54.0962631 517.713447,53.3540219 516.959385,53.0753894 C516.205324,52.7967569 515.357833,53.0483869 514.878005,53.6933754 L514.878005,53.6933754 C514.796933,53.8029871 514.729058,53.9217688 514.675783,54.0472643 C513.942222,55.7328449 512.060414,56.5994195 510.302727,56.0610606 C510.171396,56.0198354 510.035628,55.9943788 509.898283,55.9852273 L509.898283,55.9852273 C509.096263,55.9303722 508.354022,56.410619 508.075389,57.1646804 C507.796757,57.9187419 508.048387,58.766233 508.693375,59.2460606 L508.693375,59.2460606 C508.802987,59.3271324 508.921769,59.3950076 509.047264,59.4482828 C510.732845,60.1818432 511.59942,62.0636517 511.061061,63.8213384 C511.019835,63.9526694 510.994379,64.088438 510.985227,64.2257828 L510.985227,64.2257828 C510.930372,65.0278026 511.410619,65.7700437 512.16468,66.0486762 C512.918742,66.3273087 513.766233,66.0756788 514.246061,65.4306902 L514.246061,65.4306902 C514.327132,65.3210785 514.395008,65.2022968 514.448283,65.0768013 C515.181843,63.3912208 517.063652,62.5246461 518.821338,63.063005 C518.952669,63.1042302 519.088438,63.1296868 519.225783,63.1388384 L519.225783,63.1388384 C520.027803,63.1936934 520.770044,62.7134467 521.048676,61.9593852 C521.327309,61.2053238 521.075679,60.3578326 520.43069,59.878005 L520.43069,59.878005 C520.321079,59.7969333 520.202297,59.729058 520.076801,59.6757828 L520.076801,59.6757828 Z" id="Path-Copy-2" fill="#7360B7" fill-rule="nonzero"></path>
            <circle id="Oval-Copy-4" fill="#F5D7E3" transform="translate(441.157407, 631.342593) scale(-1, -1) translate(-441.157407, -631.342593) " cx="441.157407" cy="631.342593" r="5.41666667"></circle>
            <path d="M372.063847,552.033199 C370.378266,551.299638 369.511692,549.41783 370.050051,547.660143 C370.091276,547.528812 370.116732,547.393043 370.125884,547.255699 L370.125884,547.255699 C370.180739,546.453679 369.700492,545.711438 368.946431,545.432805 C368.192369,545.154173 367.344878,545.405803 366.865051,546.050791 L366.865051,546.050791 C366.783979,546.160403 366.716103,546.279185 366.662828,546.40468 C365.929268,548.090261 364.047459,548.956835 362.289773,548.418476 C362.158442,548.377251 362.022673,548.351795 361.885328,548.342643 L361.885328,548.342643 C361.083309,548.287788 360.341067,548.768035 360.062435,549.522096 C359.783802,550.276158 360.035432,551.123649 360.680421,551.603476 L360.680421,551.603476 C360.790033,551.684548 360.908814,551.752423 361.03431,551.805699 C362.71989,552.539259 363.586465,554.421068 363.048106,556.178754 C363.006881,556.310085 362.981424,556.445854 362.972273,556.583199 L362.972273,556.583199 C362.917418,557.385218 363.397664,558.12746 364.151726,558.406092 C364.905787,558.684725 365.753278,558.433095 366.233106,557.788106 L366.233106,557.788106 C366.314178,557.678494 366.382053,557.559713 366.435328,557.434217 C367.168889,555.748637 369.050697,554.882062 370.808384,555.420421 C370.939715,555.461646 371.075483,555.487103 371.212828,555.496254 L371.212828,555.496254 C372.014848,555.551109 372.757089,555.070862 373.035722,554.316801 C373.314354,553.56274 373.062724,552.715248 372.417736,552.235421 L372.417736,552.235421 C372.308124,552.154349 372.189342,552.086474 372.063847,552.033199 L372.063847,552.033199 Z" id="Path" fill="#A8577E" fill-rule="nonzero" transform="translate(366.549078, 551.919449) scale(-1, -1) translate(-366.549078, -551.919449) "></path>
            <path d="M162.619402,577.310976 C160.933822,576.577416 160.067247,574.695608 160.605606,572.937921 C160.646831,572.80659 160.672288,572.670821 160.681439,572.533476 L160.681439,572.533476 C160.736294,571.731457 160.256048,570.989216 159.501986,570.710583 C158.747925,570.431951 157.900434,570.68358 157.420606,571.328569 L157.420606,571.328569 C157.339534,571.438181 157.271659,571.556962 157.218384,571.682458 C156.484823,573.368038 154.603015,574.234613 152.845328,573.696254 C152.713997,573.655029 152.578229,573.629572 152.440884,573.620421 L152.440884,573.620421 C151.638864,573.565566 150.896623,574.045813 150.61799,574.799874 C150.339358,575.553935 150.590988,576.401427 151.235976,576.881254 L151.235976,576.881254 C151.345588,576.962326 151.46437,577.030201 151.589865,577.083476 C153.275446,577.817037 154.142021,579.698845 153.603662,581.456532 C153.562436,581.587863 153.53698,581.723632 153.527828,581.860976 L153.527828,581.860976 C153.472973,582.662996 153.95322,583.405237 154.707281,583.68387 C155.461343,583.962502 156.308834,583.710872 156.788662,583.065884 L156.788662,583.065884 C156.869733,582.956272 156.937609,582.83749 156.990884,582.711995 C157.724444,581.026414 159.606253,580.15984 161.363939,580.698199 C161.49527,580.739424 161.631039,580.76488 161.768384,580.774032 L161.768384,580.774032 C162.570404,580.828887 163.312645,580.34864 163.591277,579.594579 C163.86991,578.840517 163.61828,577.993026 162.973291,577.513199 L162.973291,577.513199 C162.86368,577.432127 162.744898,577.364252 162.619402,577.310976 L162.619402,577.310976 Z" id="Path-Copy-2" fill="#7360B7" fill-rule="nonzero" transform="translate(157.104634, 577.197226) scale(-1, -1) translate(-157.104634, -577.197226) "></path>
            <circle id="Oval-Copy-6" fill="#F4A5AE" cx="591.62037" cy="597.638889" r="5.41666667"></circle>
            <circle id="Oval-Copy-6" fill="#F5D7E3" cx="111.342593" cy="515.787037" r="5.41666667"></circle>
        </g>
    </g>
</svg>